<svg width="36" height="36" viewBox="0 0 36 36" fill="none" xmlns="http://www.w3.org/2000/svg">
<path d="M18 2.99805C9.735 2.99805 3 9.73305 3 17.998C3 26.2631 9.735 32.9981 18 32.9981C26.265 32.9981 33 26.2631 33 17.998C33 9.73305 26.265 2.99805 18 2.99805ZM24 19.123H19.125V23.9981C19.125 24.6131 18.615 25.1231 18 25.1231C17.385 25.1231 16.875 24.6131 16.875 23.9981V19.123H12C11.385 19.123 10.875 18.613 10.875 17.998C10.875 17.383 11.385 16.873 12 16.873H16.875V11.998C16.875 11.383 17.385 10.873 18 10.873C18.615 10.873 19.125 11.383 19.125 11.998V16.873H24C24.615 16.873 25.125 17.383 25.125 17.998C25.125 18.613 24.615 19.123 24 19.123Z" fill="#1AAE67"/>
</svg>
