<svg width="42" height="44" viewBox="0 0 42 44" fill="none" xmlns="http://www.w3.org/2000/svg">
<path d="M21 2.3125C19.8669 2.31353 18.7573 2.63562 17.7998 3.24144C16.8423 3.84727 16.076 4.71202 15.5899 5.7355C12.6446 12.0171 6.70424 24.4806 3.75899 30.7308C3.27599 31.7466 3.02399 32.857 3.02399 33.9831C3.02399 36.0265 3.8357 37.9861 5.28055 39.4309C6.7254 40.8758 8.68503 41.6875 10.7284 41.6875C17.0467 41.6875 26.9929 31.0904 26.9929 23.7115C26.9929 22.1221 26.3615 20.5978 25.2376 19.4739C24.1137 18.35 22.5894 17.7186 21 17.7186C19.4106 17.7186 17.8863 18.35 16.7624 19.4739C15.6385 20.5978 15.0071 22.1221 15.0071 23.7115C15.0071 31.0904 24.9532 41.6875 31.2716 41.6875C33.3149 41.6875 35.2746 40.8758 36.7194 39.4309C38.1643 37.9861 38.976 36.0265 38.976 33.9831C38.9743 32.858 38.7233 31.7472 38.241 30.7308C35.2957 24.4833 29.3737 12.0198 26.4285 5.76963C25.9459 4.73695 25.1789 3.86324 24.2174 3.25093C23.256 2.63863 22.1399 2.3131 21 2.3125Z" stroke="#1AAE67" stroke-width="3" stroke-linecap="round" stroke-linejoin="round"/>
</svg>
