<svg width="196" height="30" viewBox="0 0 196 30" fill="none" xmlns="http://www.w3.org/2000/svg">
<path d="M13.7108 19.5296L12.5446 16.5997H5.09179L3.9824 19.5296C3.84017 19.9279 3.72639 20.2977 3.72639 20.6106C3.72639 21.5208 4.49443 21.8337 6.11583 21.9191V23H0.142229V21.9191C0.910264 21.7768 1.50762 21.6346 1.79208 20.8666L7.87947 5.16452L6.96921 2.91731H12.1179L19.3147 20.8666C19.5991 21.6062 20.1965 21.7768 20.993 21.9191V23H11.6343V21.9191C13.1988 21.8622 13.9669 21.5493 13.9669 20.639C13.9669 20.3261 13.8531 19.9563 13.7108 19.5296ZM8.73284 7.01349L5.60381 15.2343H12.0041L8.73284 7.01349ZM32.8879 20.8097V12.5035C32.8879 11.0243 32.3475 10.2563 30.8398 10.2563C29.7874 10.2563 28.8202 10.6545 28.0237 11.1666V20.8097C28.0237 21.7484 28.422 21.8906 29.6451 21.976V23H21.7657V21.976C22.9888 21.8906 23.444 21.7484 23.444 20.8097V10.7683L21.7941 9.77273V9.11848L27.2841 7.52552H28.1375L28.0237 10.3416C29.1615 8.94781 30.783 7.52552 33.2862 7.52552C35.9885 7.52552 37.4677 9.06159 37.4677 12.1622V20.8097C37.4677 21.7484 37.9228 21.8906 39.146 21.976V23H31.2665V21.976C32.4897 21.8906 32.8879 21.7484 32.8879 20.8097ZM46.5868 17.6238C45.5627 17.6238 44.5387 17.4815 43.6 17.1686C43.1164 17.6238 42.6897 18.1642 42.6897 18.7331C42.6897 19.2736 43.0311 19.6434 43.6284 19.6434H49.6305C53.1862 19.6434 54.8645 21.151 54.8645 23.7111C54.8645 27.3238 51.3088 29.3434 46.3877 29.3434C42.0639 29.3434 39.39 28.0918 39.39 25.8161C39.39 24.3654 40.727 23.6258 42.0355 23.3129C40.8692 22.8578 40.2149 21.8053 40.2149 20.6106C40.2149 18.8469 41.5234 17.7091 42.9457 16.8842C41.3812 16.173 40.2434 14.8645 40.2434 12.8164C40.2434 9.48827 43.0026 7.52552 46.7575 7.52552C47.8384 7.52552 48.6349 7.69619 49.346 7.92376L54.2956 7.80997V9.57361H53.0724L51.195 9.48827C52.219 10.171 52.9871 11.3372 52.9871 12.7595C52.9871 15.8317 50.2847 17.6238 46.5868 17.6238ZM49.7158 23.8249H42.5475C42.263 24.1378 42.1492 24.6214 42.1492 25.1903C42.1492 27.0108 43.856 28.1202 46.5299 28.1202C49.2322 28.1202 51.6501 27.3238 51.6501 25.3041C51.6501 24.2232 50.9674 23.8249 49.7158 23.8249ZM46.7575 16.5997C48.2082 16.5997 48.7202 15.149 48.7202 12.7595C48.7202 10.5408 48.0375 8.60646 46.5583 8.60646C45.1076 8.60646 44.5671 10.0856 44.5671 12.3613C44.5671 14.6654 45.2783 16.5997 46.7575 16.5997ZM61.6919 7.52552V20.8097C61.6919 21.7484 62.147 21.8906 63.3702 21.976V23H55.4339V21.976C56.657 21.8906 57.1122 21.7484 57.1122 20.8097V10.7683L55.4623 9.77273V9.11848L60.9239 7.52552H61.6919ZM59.3878 6.01789C57.8517 6.01789 56.8561 4.90851 56.8561 3.60001C56.8561 2.2915 57.8517 1.15367 59.3878 1.15367C60.9239 1.15367 61.9479 2.2915 61.9479 3.60001C61.9479 4.90851 60.9239 6.01789 59.3878 6.01789ZM71.7448 7.52552C75.6988 7.52552 77.7469 10.0856 77.7469 13.6129V14.2672H68.5589C68.4736 17.9935 70.4363 20.2123 73.1102 20.2123C75.0161 20.2123 76.3246 19.4727 77.3771 18.022L77.8607 18.3065C77.1211 21.2933 74.9876 23.2845 71.5457 23.2845C67.3926 23.2845 64.4343 20.3545 64.4343 15.7748C64.4343 10.7968 67.734 7.52552 71.7448 7.52552ZM71.4319 8.6349C69.6967 8.6349 68.7865 10.4839 68.6158 13.1009H73.736C73.736 10.3985 73.1102 8.6349 71.4319 8.6349ZM84.681 23.2845C82.4053 23.2845 80.5848 22.7155 79.4185 21.8622L79.2478 17.9935H80.4141C81.0115 20.383 82.4906 22.2035 84.681 22.2035C86.1032 22.2035 87.2411 21.4924 87.2411 20.0701C87.2411 18.5625 86.1601 18.0504 84.0552 17.3109C80.9546 16.2868 79.3047 15.0067 79.3047 12.276C79.3047 9.23226 81.5804 7.52552 84.8801 7.52552C86.7575 7.52552 88.4074 8.0091 89.6021 8.77713V12.2191H88.5211C88.1229 10.2563 86.8997 8.60646 84.9085 8.60646C83.5716 8.60646 82.7182 9.37449 82.7182 10.5123C82.7182 11.7924 83.6 12.3613 85.6481 13.0724C88.8625 14.1818 90.683 15.3481 90.683 18.3065C90.683 21.4639 88.322 23.2845 84.681 23.2845ZM99.3254 6.07479V12.0484H107.262V6.07479C107.262 4.53871 107.034 4.3396 105.071 4.11203V3.03109H114.259V4.11203C112.325 4.3396 112.098 4.53871 112.098 6.07479V19.9563C112.098 21.4924 112.325 21.6915 114.259 21.9191V23H105.071V21.9191C107.034 21.6915 107.262 21.4924 107.262 19.9563V13.6129H99.3254V19.9563C99.3254 21.4924 99.553 21.6915 101.516 21.9191V23H92.3278V21.9191C94.2621 21.6915 94.4896 21.4924 94.4896 19.9563V6.07479C94.4896 4.53871 94.2621 4.3396 92.3278 4.11203V3.03109H101.516V4.11203C99.553 4.3396 99.3254 4.53871 99.3254 6.07479ZM122.969 7.52552C126.923 7.52552 128.971 10.0856 128.971 13.6129V14.2672H119.783C119.698 17.9935 121.661 20.2123 124.335 20.2123C126.241 20.2123 127.549 19.4727 128.602 18.022L129.085 18.3065C128.346 21.2933 126.212 23.2845 122.77 23.2845C118.617 23.2845 115.659 20.3545 115.659 15.7748C115.659 10.7968 118.959 7.52552 122.969 7.52552ZM122.656 8.6349C120.921 8.6349 120.011 10.4839 119.84 13.1009H124.961C124.961 10.3985 124.335 8.6349 122.656 8.6349ZM136.304 0.726986V20.8097C136.304 21.7484 136.759 21.8906 138.01 21.976V23H130.046V21.976C131.297 21.8906 131.752 21.7484 131.752 20.8097V3.62845L130.103 2.77508V2.06394L135.564 0.726986H136.304ZM147.411 22.0897C149.658 22.0897 150.938 19.3874 150.938 15.9455C150.938 12.3328 149.63 10.2563 147.212 10.2563C146.444 10.2563 145.676 10.5408 145.079 10.9959V18.9323C145.079 20.9519 145.761 22.0897 147.411 22.0897ZM140.527 26.8402V10.7683L138.877 9.77273V9.11848L144.367 7.52552H145.192L145.079 10.2279C145.96 8.89091 147.525 7.52552 149.857 7.52552C153.271 7.52552 155.575 9.97185 155.575 14.4663C155.575 20.1554 152.133 23.2845 147.753 23.2845C146.643 23.2845 145.648 23.0569 145.079 22.6018V26.7264C145.079 27.7789 145.619 27.8642 147.354 28.0065V29.0305H138.821V28.0065C140.072 27.9211 140.527 27.7789 140.527 26.8402ZM164.416 7.52552C168.37 7.52552 170.418 10.0856 170.418 13.6129V14.2672H161.23C161.144 17.9935 163.107 20.2123 165.781 20.2123C167.687 20.2123 168.995 19.4727 170.048 18.022L170.532 18.3065C169.792 21.2933 167.659 23.2845 164.217 23.2845C160.064 23.2845 157.105 20.3545 157.105 15.7748C157.105 10.7968 160.405 7.52552 164.416 7.52552ZM164.103 8.6349C162.368 8.6349 161.457 10.4839 161.287 13.1009H166.407C166.407 10.3985 165.781 8.6349 164.103 8.6349ZM177.864 12.788V20.4683C177.864 21.6631 178.49 21.8053 180.196 21.976V23H171.606V21.976C172.829 21.8906 173.284 21.7484 173.284 20.8097V10.7683L171.634 9.77273V9.11848L177.124 7.52552H177.978L177.864 11.8208C179.115 8.60646 180.026 7.52552 181.761 7.52552C182.387 7.52552 182.842 7.72464 183.098 8.0091V11.4795H182.501C180.708 11.4795 179.229 11.5648 177.864 12.788ZM189.658 23.2845C187.382 23.2845 185.562 22.7155 184.395 21.8622L184.225 17.9935H185.391C185.988 20.383 187.468 22.2035 189.658 22.2035C191.08 22.2035 192.218 21.4924 192.218 20.0701C192.218 18.5625 191.137 18.0504 189.032 17.3109C185.932 16.2868 184.282 15.0067 184.282 12.276C184.282 9.23226 186.557 7.52552 189.857 7.52552C191.734 7.52552 193.384 8.0091 194.579 8.77713V12.2191H193.498C193.1 10.2563 191.877 8.60646 189.886 8.60646C188.549 8.60646 187.695 9.37449 187.695 10.5123C187.695 11.7924 188.577 12.3613 190.625 13.0724C193.839 14.1818 195.66 15.3481 195.66 18.3065C195.66 21.4639 193.299 23.2845 189.658 23.2845Z" fill="#1AAE67"/>
</svg>
