<svg width="28" height="30" viewBox="0 0 28 30" fill="none" xmlns="http://www.w3.org/2000/svg">
<path d="M20.6791 19.1409C20.202 18.8437 19.6156 18.85 19.1407 19.1497L16.7363 20.6718C16.1981 21.0127 15.5259 20.9726 15.0322 20.5631C14.1791 19.8551 12.8054 18.664 11.6101 17.3941C10.415 16.1242 9.29386 14.6646 8.62753 13.7581C8.24207 13.2336 8.20447 12.5194 8.52529 11.9475L9.95784 9.39282C10.2411 8.88836 10.2434 8.2603 9.96372 7.75334L6.43581 1.35033C6.09383 0.731018 5.41456 0.426344 4.75764 0.597407C4.11951 0.76222 3.291 1.16428 2.42254 2.08827C-0.296847 4.97763 -1.74115 9.85106 8.48534 20.7167C18.7118 31.5824 23.2974 30.049 26.0179 27.1585C26.8888 26.2333 27.266 25.3516 27.4223 24.6725C27.5809 23.9756 27.2989 23.259 26.7171 22.8968C25.2646 21.994 22.1316 20.045 20.6791 19.1409Z" fill="white"/>
<path fill-rule="evenodd" clip-rule="evenodd" d="M15.6855 4.75709C15.872 4.16134 16.5866 3.80801 17.2816 3.96789C19.7126 4.52708 21.929 5.62448 23.7088 7.14995C25.4885 8.67541 26.7688 10.5753 27.4211 12.6589C27.6078 13.2546 27.1956 13.8672 26.5004 14.0271C25.8054 14.187 25.0908 13.8336 24.9043 13.2379C24.3703 11.5327 23.3226 9.97786 21.866 8.72943C20.4096 7.48101 18.5956 6.58292 16.6062 6.12527C15.9111 5.96539 15.4989 5.35283 15.6855 4.75709Z" fill="white"/>
<path fill-rule="evenodd" clip-rule="evenodd" d="M15.6771 9.59996C15.8303 9.16717 16.4224 8.90949 16.9995 9.02444C18.2866 9.28081 19.4604 9.7878 20.402 10.494C21.3437 11.2003 22.0197 12.0806 22.3615 13.046C22.5147 13.4788 22.1711 13.9228 21.5942 14.0377C21.0171 14.1526 20.425 13.895 20.2718 13.4622C20.0278 12.7732 19.5452 12.1448 18.8732 11.6407C18.201 11.1366 17.3632 10.7747 16.4444 10.5917C15.8675 10.4768 15.5239 10.0328 15.6771 9.59996Z" fill="white"/>
</svg>
