<svg width="43" height="43" viewBox="0 0 43 43" fill="none" xmlns="http://www.w3.org/2000/svg">
<path d="M32.6176 19.5735V15.9706C32.6176 8.25 26.3676 2 18.6471 2C10.9265 2 4.67647 8.25 4.67647 15.9706V19.5735C2.47059 20.3824 1 22.4412 1 24.7941V28.3971C1 31.4853 3.5 33.9118 6.51471 33.9118H6.88235C8.5 33.9118 9.82353 32.5882 9.82353 30.9706V22.1471C9.82353 20.5294 8.5 19.2059 6.88235 19.2059H6.51471C6.36765 19.2059 6.22059 19.2059 6.14706 19.2059V15.8971C6.14706 8.98529 11.7353 3.39706 18.6471 3.39706C25.5588 3.39706 31.1471 8.98529 31.1471 15.8971V19.2059C31 19.2059 30.8529 19.2059 30.7794 19.2059H30.4118C28.7941 19.2059 27.4706 20.5294 27.4706 22.1471V30.9706C27.4706 32.4412 28.5735 33.6912 29.9706 33.8382C29.8971 33.9853 29.8235 34.2059 29.75 34.3529C28.8676 36.0441 27.3235 37.3676 25.4118 37.8824C24.8971 37.2206 24.1618 36.8529 23.3529 36.8529H18.9412C17.5441 36.8529 16.3676 38.0294 16.3676 39.4265C16.3676 40.8235 17.5441 42 18.9412 42H23.3529C24.75 42 25.9265 40.8235 25.9265 39.4265C25.9265 39.3529 25.9265 39.3529 25.9265 39.2794C28.1324 38.6176 30.0441 37.0735 31.0735 35.0147C31.2206 34.6471 31.3676 34.2794 31.5147 33.8382C34.2353 33.4706 36.2206 31.1176 36.2941 28.3235V24.7206C36.2941 22.4412 34.8235 20.3088 32.6176 19.5735ZM6.88235 20.6765C7.69118 20.6765 8.35294 21.3382 8.35294 22.1471V30.9706C8.35294 31.7794 7.69118 32.4412 6.88235 32.4412H6.51471C4.23529 32.4412 2.47059 30.6029 2.47059 28.3971V24.7941C2.47059 22.5147 4.30882 20.75 6.51471 20.75H6.88235V20.6765ZM23.4265 40.5294H19.0147C18.4265 40.5294 17.9118 40.0147 17.9118 39.4265C17.9118 38.8382 18.4265 38.3235 19.0147 38.3235H23.4265C24.0147 38.3235 24.5294 38.8382 24.5294 39.4265C24.5294 40.0147 24.0147 40.5294 23.4265 40.5294ZM34.8235 28.3971C34.8235 30.6765 32.9853 32.4412 30.7794 32.4412H30.4118C29.6029 32.4412 28.9412 31.7794 28.9412 30.9706V22.1471C28.9412 21.3382 29.6029 20.6765 30.4118 20.6765H30.7794C33.0588 20.6765 34.8235 22.5147 34.8235 24.7206V28.3971Z" fill="#1AAE67" stroke="#1AAE67" stroke-width="1.5"/>
</svg>
