<svg width="43" height="43" viewBox="0 0 43 43" fill="none" xmlns="http://www.w3.org/2000/svg">
<path d="M37.0921 41H25.0614V29.8286H18.1867V41H6.15601V22.954C6.15601 22.7261 6.24655 22.5075 6.4077 22.3463C6.56886 22.1852 6.78744 22.0946 7.01535 22.0946C7.24326 22.0946 7.46183 22.1852 7.62299 22.3463C7.78414 22.5075 7.87468 22.7261 7.87468 22.954V39.2813H16.468V28.11H26.7801V39.2813H35.3734V23.8133C35.3734 23.5854 35.4639 23.3668 35.6251 23.2057C35.7863 23.0445 36.0048 22.954 36.2327 22.954C36.4606 22.954 36.6792 23.0445 36.8404 23.2057C37.0015 23.3668 37.0921 23.5854 37.0921 23.8133V41Z" fill="#1AAE67"/>
<path d="M41.3893 22.954C41.168 22.9543 40.9552 22.869 40.7954 22.716L21.6245 4.37864L2.45364 22.716C2.28898 22.8736 2.06845 22.9593 1.84058 22.9543C1.6127 22.9493 1.39614 22.854 1.23854 22.6894C1.08094 22.5247 0.995211 22.3042 1.00021 22.0763C1.0052 21.8484 1.10052 21.6319 1.26518 21.4743L21.6245 2L41.9831 21.4734C42.1071 21.592 42.1929 21.745 42.2292 21.9127C42.2656 22.0805 42.2509 22.2553 42.187 22.4146C42.1231 22.5739 42.013 22.7104 41.8708 22.8065C41.7286 22.9027 41.5609 22.9541 41.3893 22.954ZM34.5146 12.642C34.2867 12.642 34.0681 12.5515 33.9069 12.3903C33.7458 12.2292 33.6552 12.0106 33.6552 11.7827V6.62666H28.4992C28.2713 6.62666 28.0527 6.53612 27.8916 6.37497C27.7304 6.21381 27.6399 5.99523 27.6399 5.76732C27.6399 5.53941 27.7304 5.32084 27.8916 5.15968C28.0527 4.99853 28.2713 4.90799 28.4992 4.90799H35.3739V11.7827C35.3739 12.0106 35.2834 12.2292 35.1222 12.3903C34.9611 12.5515 34.7425 12.642 34.5146 12.642Z" fill="#1AAE67"/>
<path d="M37.0921 41H25.0614V29.8286H18.1867V41H6.15601V22.954C6.15601 22.7261 6.24655 22.5075 6.4077 22.3463C6.56886 22.1852 6.78744 22.0946 7.01535 22.0946C7.24326 22.0946 7.46183 22.1852 7.62299 22.3463C7.78414 22.5075 7.87468 22.7261 7.87468 22.954V39.2813H16.468V28.11H26.7801V39.2813H35.3734V23.8133C35.3734 23.5854 35.4639 23.3668 35.6251 23.2057C35.7863 23.0445 36.0048 22.954 36.2327 22.954C36.4606 22.954 36.6792 23.0445 36.8404 23.2057C37.0015 23.3668 37.0921 23.5854 37.0921 23.8133V41Z" stroke="#1AAE67" stroke-width="1.5"/>
<path d="M41.3893 22.954C41.168 22.9543 40.9552 22.869 40.7954 22.716L21.6245 4.37864L2.45364 22.716C2.28898 22.8736 2.06845 22.9593 1.84058 22.9543C1.6127 22.9493 1.39614 22.854 1.23854 22.6894C1.08094 22.5247 0.995211 22.3042 1.00021 22.0763C1.0052 21.8484 1.10052 21.6319 1.26518 21.4743L21.6245 2L41.9831 21.4734C42.1071 21.592 42.1929 21.745 42.2292 21.9127C42.2656 22.0805 42.2509 22.2553 42.187 22.4146C42.1231 22.5739 42.013 22.7104 41.8708 22.8065C41.7286 22.9027 41.5609 22.9541 41.3893 22.954ZM34.5146 12.642C34.2867 12.642 34.0681 12.5515 33.9069 12.3903C33.7458 12.2292 33.6552 12.0106 33.6552 11.7827V6.62666H28.4992C28.2713 6.62666 28.0527 6.53612 27.8916 6.37497C27.7304 6.21381 27.6399 5.99523 27.6399 5.76732C27.6399 5.53941 27.7304 5.32084 27.8916 5.15968C28.0527 4.99853 28.2713 4.90799 28.4992 4.90799H35.3739V11.7827C35.3739 12.0106 35.2834 12.2292 35.1222 12.3903C34.9611 12.5515 34.7425 12.642 34.5146 12.642Z" stroke="#1AAE67" stroke-width="1.5"/>
</svg>
