<svg width="221" height="220" viewBox="0 0 221 220" fill="none" xmlns="http://www.w3.org/2000/svg">
<g clip-path="url(#clip0_152_1860)">
<rect x="0.936523" width="220" height="220" rx="110" fill="#CEE7DB"/>
<rect x="0.936523" width="220" height="220" rx="110" fill="#D9FFE8"/>
<path d="M143.29 186C143.29 215.271 89.5611 229 60.29 229C31.0189 229 7.29004 205.271 7.29004 176C7.29004 146.729 22.5189 141.5 51.79 141.5C81.0611 141.5 143.29 156.729 143.29 186Z" fill="#7AA68B"/>
<path d="M241.29 50.5C241.29 79.7711 187.561 93.5 158.29 93.5C129.019 93.5 105.29 69.7711 105.29 40.5C105.29 11.2289 120.519 6 149.79 6C179.061 6 241.29 21.2289 241.29 50.5Z" fill="#7AA68B"/>
<path d="M58.29 56H102.79C101.038 51.949 97.8684 49.2457 107.79 47.5C114.561 48.4092 114.221 51.0788 113.29 56H157.29V175H58.29V56Z" fill="#D9FFE8"/>
<path d="M158.79 94.5L170.79 75L161.79 69L151.79 87.5L158.79 94.5Z" fill="#D9FFE8"/>
<path d="M76.0244 126.137H91.583C92.0658 126.137 92.526 125.943 92.8668 125.602C93.2076 125.261 93.4007 124.8 93.4007 124.317V108.744C93.4007 108.261 93.2076 107.8 92.8668 107.459C92.5259 107.118 92.0658 106.925 91.583 106.925H76.0244C75.019 106.925 74.2067 107.738 74.2067 108.744V124.317C74.2067 125.324 75.019 126.137 76.0244 126.137ZM77.8422 110.564H89.7655V122.498H77.8422V110.564ZM74.2067 82.0946V97.6676C74.2067 98.1508 74.3942 98.6171 74.735 98.9582C75.0758 99.2994 75.5416 99.487 76.0244 99.487H91.583C92.0658 99.487 92.526 99.2994 92.8668 98.9582C93.2076 98.6171 93.4007 98.1508 93.4007 97.6676V82.0946C93.4007 81.6114 93.2076 81.1508 92.8668 80.8097C92.5259 80.4685 92.0658 80.2752 91.583 80.2752H76.0244C75.019 80.2752 74.2067 81.0883 74.2067 82.0946ZM77.8422 83.9141H89.7655V95.8484H77.8422V83.9141ZM99.6553 86.1144C99.6553 85.108 100.468 84.295 101.473 84.295H115.68C116.68 84.295 117.498 85.108 117.498 86.1144C117.498 87.1208 116.68 87.9339 115.68 87.9339H101.473C100.99 87.9339 100.524 87.7406 100.184 87.3994C99.8427 87.0583 99.6496 86.592 99.6496 86.1087L99.6553 86.1144ZM99.6553 93.6594V93.6537C99.6553 92.653 100.468 91.8343 101.473 91.8343H137.789C138.794 91.8343 139.607 92.653 139.607 93.6537C139.607 94.6601 138.794 95.4732 137.789 95.4732H101.467C100.984 95.4732 100.524 95.2855 100.183 94.9444C99.8426 94.5976 99.6495 94.137 99.6495 93.6537L99.6553 93.6594ZM99.6553 112.763V112.758C99.6496 112.28 99.8427 111.814 100.184 111.473C100.524 111.132 100.99 110.938 101.473 110.938H115.68C116.68 110.938 117.498 111.757 117.498 112.758C117.498 113.764 116.68 114.577 115.68 114.577H101.473C100.99 114.583 100.524 114.39 100.184 114.048C99.8427 113.702 99.6496 113.241 99.6496 112.758L99.6553 112.763ZM99.6553 120.308V120.303C99.6496 119.82 99.8427 119.359 100.184 119.018C100.524 118.677 100.99 118.483 101.473 118.483H123.059C124.065 118.483 124.877 119.296 124.877 120.303C124.877 121.309 124.065 122.122 123.059 122.122H101.467C100.984 122.122 100.524 121.929 100.183 121.588C99.8426 121.247 99.6495 120.78 99.6495 120.303L99.6553 120.308ZM117.498 139.413V139.407C117.498 139.89 117.305 140.351 116.964 140.692C116.624 141.033 116.163 141.226 115.681 141.226H101.474C100.468 141.226 99.656 140.413 99.656 139.407C99.656 138.4 100.468 137.587 101.474 137.587H115.681C116.68 137.587 117.493 138.4 117.493 139.407L117.498 139.413ZM93.4022 147.645V150.966C93.4022 151.449 93.2147 151.91 92.8739 152.251C92.5331 152.592 92.0673 152.785 91.5844 152.785H76.0259C75.0205 152.785 74.2081 151.967 74.2081 150.966V135.387C74.2081 134.386 75.0205 133.568 76.0259 133.568H84.9783C85.9837 133.568 86.796 134.386 86.796 135.387C86.796 136.393 85.9837 137.207 84.9783 137.207H77.8437V149.141H89.767V147.646C89.767 146.645 90.5793 145.826 91.5847 145.826C92.5845 145.826 93.4022 146.645 93.4022 147.645ZM85.8358 143.705L98.1114 131.418H98.1057C98.8157 130.708 99.9688 130.708 100.679 131.418C101.389 132.123 101.395 133.278 100.685 133.988L87.1196 147.56C86.4095 148.271 85.2565 148.271 84.5464 147.56L79.6555 142.665C78.9454 141.954 78.9454 140.806 79.6555 140.095C80.3655 139.384 81.5186 139.384 82.2287 140.095L85.8358 143.705ZM171.134 73.7137C170.509 72.0592 169.219 70.74 167.578 70.0749L167.14 69.8304L166.703 69.5802V69.5745C165.311 68.4828 163.522 68.028 161.778 68.3123C160.079 68.915 158.676 70.1374 157.841 71.7351V57.1967C157.841 56.1903 157.029 55.3772 156.029 55.3772L117.044 55.2294V52.9892C117.044 48.0255 113.022 44 108.057 44C103.098 44 99.0761 48.0255 99.0761 52.9892V55.3715L60.1078 55.3772C59.108 55.3772 58.29 56.1902 58.29 57.1966V173.181C58.29 173.664 58.4832 174.124 58.824 174.466C59.1648 174.807 59.6306 175 60.1078 175H156.029C156.511 175 156.977 174.807 157.318 174.466C157.659 174.124 157.846 173.664 157.846 173.181V100.198L169.656 79.7183C171.099 77.2223 171.571 75.3172 171.134 73.7137ZM159.602 89.8834L153.564 86.3924L156.188 81.8438L162.227 85.3348L159.602 89.8834ZM134.591 133.237L128.553 129.746L151.746 89.5422L157.785 93.0332L134.591 133.237ZM90.0331 72.2524H126.105C126.588 72.2524 127.048 72.0591 127.388 71.7179C127.729 71.3767 127.922 70.9162 127.922 70.4329V67.4764H145.975V92.2659L124.496 129.508L121.827 134.13C121.685 134.375 121.605 134.647 121.588 134.926L120.952 145.126H101.468C100.463 145.126 99.6505 145.939 99.6505 146.946C99.6505 147.952 100.463 148.765 101.468 148.765H122.656C122.736 148.765 122.815 148.759 122.895 148.748L122.951 148.737V148.742C123.025 148.725 123.093 148.714 123.167 148.691H123.184C123.264 148.669 123.338 148.64 123.412 148.606L123.451 148.583C123.52 148.555 123.588 148.515 123.656 148.469H123.679L133.597 141.885H133.591C133.824 141.732 134.017 141.522 134.159 141.277L145.974 120.792V162.901H70.1565V67.4764H88.2149V70.4272C88.2149 70.9105 88.408 71.3711 88.7488 71.7122C89.0897 72.0534 89.5498 72.2467 90.0326 72.2467L90.0331 72.2524ZM125.19 135.58L126.735 132.902L132.773 136.393L131.223 139.071L124.696 143.404L125.19 135.58ZM154.212 77.9901L149.61 85.9673V65.658C149.61 65.1747 149.423 64.7142 149.082 64.373C148.741 64.0319 148.275 63.8386 147.793 63.8386H127.922V58.9091L154.211 59.0114L154.212 77.9901ZM100.906 59.0171C101.389 59.0171 101.849 58.8237 102.19 58.4826C102.531 58.1414 102.724 57.6809 102.724 57.1976V52.9902C102.724 50.0337 105.115 47.6399 108.069 47.6399C111.023 47.6399 113.415 50.0336 113.415 52.9902V57.0442C113.415 58.0449 114.227 58.858 115.227 58.8636L124.287 58.8978V68.609H91.8512V59.0173L100.906 59.0171ZM154.212 171.362H61.9262V59.0171H88.2153V63.8386H68.3393C67.3395 63.8386 66.5215 64.6516 66.5215 65.658V164.721C66.5215 165.199 66.7146 165.665 67.0555 166.006C67.3963 166.347 67.8564 166.541 68.3393 166.541H147.798C148.281 166.541 148.747 166.347 149.088 166.006C149.429 165.665 149.616 165.204 149.616 164.721V114.476L154.217 106.499L154.212 171.362ZM166.51 77.8999L164.039 82.1756L158 78.6846L160.471 74.4089C161.693 72.2938 162.443 71.9014 162.71 71.8333C163.164 71.7139 163.993 72.2029 164.868 72.7146L165.323 72.9818L165.783 73.2434C166.669 73.7437 167.498 74.2213 167.623 74.6762C167.697 74.9377 167.731 75.7849 166.516 77.8999L166.51 77.8999Z" fill="#212825"/>
</g>
<defs>
<clipPath id="clip0_152_1860">
<rect x="0.936523" width="220" height="220" rx="110" fill="white"/>
</clipPath>
</defs>
</svg>
