<svg width="221" height="220" viewBox="0 0 221 220" fill="none" xmlns="http://www.w3.org/2000/svg">
<g clip-path="url(#clip0_152_1878)">
<rect x="0.646484" width="220" height="220" rx="110" fill="#CEE7DB"/>
<rect x="0.646484" width="220" height="220" rx="110" fill="#FFEDD3"/>
<path d="M143 186C143 215.271 89.2711 229 60 229C30.7289 229 7 205.271 7 176C7 146.729 22.2289 141.5 51.5 141.5C80.7711 141.5 143 156.729 143 186Z" fill="#FFC97C"/>
<path d="M241 50.5C241 79.7711 187.271 93.5 158 93.5C128.729 93.5 105 69.7711 105 40.5C105 11.2289 120.229 6 149.5 6C178.771 6 241 21.2289 241 50.5Z" fill="#FFC97C"/>
<circle cx="92.2624" cy="110.053" r="24.6316" fill="#FFEDD3"/>
<path d="M141.178 125.449V123.618C144.717 123.618 147.585 121.159 147.585 118.127C147.585 115.094 144.717 112.635 141.178 112.635C137.64 112.635 134.771 115.094 134.771 118.127" stroke="#1C3D2D" stroke-width="4" stroke-linecap="round" stroke-linejoin="round"/>
<path d="M141.178 132.771C142.189 132.771 143.009 131.951 143.009 130.94C143.009 129.929 142.189 129.11 141.178 129.11C140.167 129.11 139.348 129.929 139.348 130.94C139.348 131.951 140.167 132.771 141.178 132.771Z" fill="black"/>
<path d="M112.848 102.973C113.427 104.92 114 107.365 114 109.5C114 121.374 104.374 131 92.5 131C80.6259 131 71 121.374 71 109.5C71 97.6259 80.6259 88 92.5 88C96.4161 88 100.855 89.2421 104.018 91.0714" stroke="#1C3D2D" stroke-width="4"/>
<path d="M121.022 158.463C121.11 159.184 120.512 160 119.448 160L64.7895 160C63.7256 160 63.1273 159.184 63.2155 158.463C64.001 152.043 66.9083 146.03 71.5287 141.41C76.9895 135.949 84.3959 132.881 92.1186 132.881C99.8414 132.881 107.248 135.949 112.709 141.41C117.329 146.03 120.236 152.044 121.022 158.463Z" fill="#FFEDD3" stroke="#1C3D2D" stroke-width="4"/>
<path d="M147.949 92.2371H153.44C157.467 92.6032 160 95.1354 160.762 96.3557V137.542L166.711 146.237H128.728C125.983 146.237 123.237 145.322 122.779 139.83V112.373" stroke="#1C3D2D" stroke-width="4"/>
<rect x="105.102" y="59" width="42.6779" height="43.5932" rx="3.50758" fill="#FFEDD3" stroke="#1C3D2D" stroke-width="4"/>
<path d="M113.17 68.8982H139.255" stroke="#1C3D2D" stroke-width="4" stroke-linecap="round"/>
<path d="M113.17 78.9661H139.255" stroke="#1C3D2D" stroke-width="4" stroke-linecap="round"/>
<path d="M113.17 89.0337H130.56" stroke="#1C3D2D" stroke-width="4" stroke-linecap="round"/>
</g>
<defs>
<clipPath id="clip0_152_1878">
<rect x="0.646484" width="220" height="220" rx="110" fill="white"/>
</clipPath>
</defs>
</svg>
