<svg width="221" height="220" viewBox="0 0 221 220" fill="none" xmlns="http://www.w3.org/2000/svg">
<g clip-path="url(#clip0_152_1846)">
<rect x="0.646484" width="220" height="220" rx="110" fill="#CEE7DB"/>
<rect x="0.646484" width="220" height="220" rx="110" fill="#FFEDD3"/>
<path d="M143 186C143 215.271 89.2711 229 60 229C30.7289 229 7 205.271 7 176C7 146.729 22.2289 141.5 51.5 141.5C80.7711 141.5 143 156.729 143 186Z" fill="#FFC97C"/>
<path d="M241 50.5C241 79.7711 187.271 93.5 158 93.5C128.729 93.5 105 69.7711 105 40.5C105 11.2289 120.229 6 149.5 6C178.771 6 241 21.2289 241 50.5Z" fill="#FFC97C"/>
<circle cx="109" cy="110" r="60" fill="#FFEDD3"/>
<path d="M81.3047 62.1167C79.0352 63.4514 77.0117 60.0195 79.2812 58.6848C108.402 41.5253 145.945 52.2024 161.832 81.5642C162.352 82.5448 161.996 83.7432 161.039 84.2607C160.055 84.7782 158.852 84.4241 158.332 83.4708C143.375 55.8249 108.266 46.2374 81.3047 62.1167ZM140.148 155.786C141.078 155.187 142.309 155.432 142.91 156.358C143.512 157.284 143.266 158.51 142.363 159.109C122.129 172.455 95.7695 172.265 75.7812 158.537C65.9102 151.782 58.1992 142.113 53.8789 130.809C53.4961 129.774 54.0156 128.63 55.0273 128.249C56.0664 127.84 57.2148 128.385 57.625 129.393C70.3125 162.65 110.727 175.288 140.148 155.786ZM118.684 112.506C118.684 115.121 114.691 115.121 114.691 112.506C114.691 103.681 125.465 99.214 131.754 105.479C133.559 107.276 134.68 109.782 134.68 112.506C134.68 122.121 125.984 119.86 125.602 125.988C125.438 128.603 121.445 128.358 121.609 125.743C122.184 116.837 130.688 119.342 130.688 112.533C130.688 107.249 124.207 104.553 120.461 108.311C119.367 109.346 118.684 110.844 118.684 112.506ZM140.668 112.506C140.668 115.121 136.676 115.121 136.676 112.506C136.676 103.681 147.449 99.214 153.738 105.479C155.543 107.276 156.664 109.782 156.664 112.506C156.664 122.121 147.969 119.86 147.586 125.988C147.422 128.603 143.43 128.358 143.594 125.743C144.168 116.837 152.672 119.342 152.672 112.533C152.672 107.249 146.191 104.553 142.445 108.311C141.352 109.346 140.668 110.844 140.668 112.506ZM143.566 130.946C143.566 128.304 147.559 128.304 147.559 130.946V132.198C147.559 134.813 143.566 134.813 143.566 132.198V130.946ZM121.582 130.946C121.582 128.304 125.574 128.304 125.574 130.946V132.198C125.574 134.813 121.582 134.813 121.582 132.198V130.946ZM106.734 89.7082H119.75V75C119.75 72.5487 117.727 70.5059 115.238 70.5059H57.5156C55.0547 70.5059 53.0039 72.5214 53.0039 75V114.195C53.0039 116.646 55.0273 118.689 57.5156 118.689H66.5391C67.6602 118.689 68.5352 119.588 68.5352 120.677V130.782L80.1016 119.261C80.5117 118.879 81.0039 118.689 81.5234 118.689H98.2305V98.2062C98.2305 93.5214 102.031 89.7082 106.734 89.7082ZM123.77 89.7082H164.484C169.16 89.7082 172.988 93.5214 172.988 98.179V137.374C172.988 142.031 169.16 145.844 164.484 145.844H157.457V158.755C157.457 160.525 155.297 161.424 154.039 160.144L139.656 145.817H106.734C102.059 145.817 98.2305 142.004 98.2305 137.346V122.611H82.3438L67.9609 136.965C66.7031 138.245 64.543 137.346 64.543 135.576V122.638H57.5156C52.8398 122.638 49.0117 118.825 49.0117 114.167V75C49.0117 70.3424 52.8398 66.5292 57.5156 66.5292H115.266C119.941 66.5292 123.77 70.3424 123.77 75V89.7082ZM164.484 93.6848H106.734C104.273 93.6848 102.223 95.7004 102.223 98.179V137.374C102.223 139.825 104.246 141.868 106.734 141.868H140.477C140.996 141.868 141.516 142.058 141.898 142.44L153.465 153.961V143.856C153.465 142.767 154.367 141.868 155.461 141.868H164.484C166.945 141.868 168.996 139.852 168.996 137.374V98.179C168.996 95.7004 166.945 93.6848 164.484 93.6848ZM102.852 79.9845C105.504 79.9845 105.504 83.9611 102.852 83.9611H79.3906C76.7656 83.9611 76.7656 79.9845 79.3906 79.9845H102.852ZM90.4922 104.09C93.1172 104.09 93.1172 108.066 90.4922 108.066H61.6719C59.0469 108.066 59.0469 104.09 61.6719 104.09H90.4922ZM90.4922 92.0506C93.1172 92.0506 93.1172 96.0273 90.4922 96.0273H61.6719C59.0469 96.0273 59.0469 92.0506 61.6719 92.0506H90.4922Z" fill="#1C3D2D"/>
</g>
<defs>
<clipPath id="clip0_152_1846">
<rect x="0.646484" width="220" height="220" rx="110" fill="white"/>
</clipPath>
</defs>
</svg>
