<svg width="221" height="220" viewBox="0 0 221 220" fill="none" xmlns="http://www.w3.org/2000/svg">
<g clip-path="url(#clip0_152_1943)">
<rect x="0.936523" width="220" height="220" rx="110" fill="#CEE7DB"/>
<rect x="0.936523" width="220" height="220" rx="110" fill="#D9FFE8"/>
<path d="M143.29 186C143.29 215.271 89.5611 229 60.29 229C31.0189 229 7.29004 205.271 7.29004 176C7.29004 146.729 22.5189 141.5 51.79 141.5C81.0611 141.5 143.29 156.729 143.29 186Z" fill="#7AA68B"/>
<path d="M241.29 50.5C241.29 79.7711 187.561 93.5 158.29 93.5C129.019 93.5 105.29 69.7711 105.29 40.5C105.29 11.2289 120.519 6 149.79 6C179.061 6 241.29 21.2289 241.29 50.5Z" fill="#7AA68B"/>
<path d="M95.3075 169.42L107.549 159.307L95.3075 147.065L84.6623 155.581L78.2751 150.258L66.5654 138.549V133.226L74.0171 126.839L62.3073 113.532L51.1299 125.774V135.887L82.5332 167.823L88.9203 171.017L95.3075 169.42Z" fill="#D9FFE8"/>
<path d="M132.566 122.049H127.244L122.986 126.839L117.663 129.5H108.615L97.4372 124.178L92.6469 115.662L88.3888 111.404L86.792 108.21V87.4518L94.7759 75.2098L104.889 69.8872L117.663 69.355L130.97 78.9357L134.163 89.0486L135.228 99.6938V120.452L132.566 122.049Z" fill="#D9FFE8"/>
<path d="M161.307 73.0806L143.743 85.8548L146.936 74.1451L138.952 73.6129L134.694 71.4838V53.9192L137.356 49.1289H167.694L171.42 51.2579L172.485 70.4193L168.759 73.6129L161.307 73.0806Z" fill="#D9FFE8"/>
<path d="M141.082 138.549L147.469 154.517H102.227L94.2433 146.533L85.7271 154.517H81.469L76.6787 146.533L82.5336 136.42L102.227 131.629V128.436L108.614 129.5H116.598L120.324 131.629L135.76 134.823L141.082 138.549Z" fill="#D9FFE8"/>
<path fill-rule="evenodd" clip-rule="evenodd" d="M137.505 47.3053C136.089 47.833 135.02 48.7769 134.24 50.1895L133.528 51.4799V61.1809C133.528 70.6582 133.54 70.9046 134.057 71.8644C134.348 72.4047 134.954 73.2004 135.403 73.6324C136.796 74.9724 137.801 75.2573 141.556 75.3757L144.934 75.482L144.804 76.1291C144.334 78.4697 142.937 87.0486 142.998 87.2163C143.038 87.3293 147.351 84.7358 152.581 81.4532L162.09 75.4847L165.674 75.373C168.115 75.2966 169.531 75.1423 170.114 74.8891C171.47 74.3009 172.584 73.2144 173.206 71.8744C173.777 70.6425 173.78 70.5885 173.782 61.1117C173.784 53.5817 173.714 51.4178 173.448 50.7787C172.968 49.6259 171.671 48.2238 170.504 47.5973C169.506 47.0614 169.441 47.0589 153.962 47.0115C141.205 46.9722 138.258 47.0248 137.505 47.3053ZM138.098 51.6798C137.572 52.242 137.566 52.3486 137.566 61.1466V70.0448L138.167 70.6474L138.767 71.2504H144.251H149.734L149.038 75.2246C148.655 77.4107 148.367 79.2205 148.399 79.2465C148.43 79.2725 151.319 77.4863 154.819 75.2769L161.182 71.2602L164.852 71.2474C167.345 71.2388 168.648 71.1386 168.912 70.9355C169.822 70.2344 169.869 69.7382 169.869 60.9403V52.3171L169.268 51.7144L168.668 51.1115H153.649H138.63L138.098 51.6798ZM104.528 53.4267C97.7521 54.2932 91.9248 56.0676 85.8894 59.1025C71.8491 66.1624 61.2778 78.9105 56.9584 93.9901L56.1364 96.8607L54.3553 93.8715C53.3756 92.2272 52.479 90.8232 52.363 90.7512C52.2039 90.6525 49.7018 91.9765 49.0017 92.5298C48.9292 92.587 54.4549 102.012 55.8021 104.13C55.9699 104.393 57.3017 103.696 61.857 100.96C65.069 99.0305 67.7309 97.4263 67.7722 97.3948C67.8263 97.3533 66.0567 94.2866 65.7704 93.9258C65.7518 93.9027 64.581 94.5899 63.1685 95.4529C61.7559 96.3162 60.526 97.0259 60.4354 97.0301C59.9609 97.0527 62.1578 90.7036 63.8743 87.0913C70.5376 73.069 83.1923 62.6309 98.2545 58.7336C106.465 56.6089 115.996 56.5971 124.14 58.7019L126.8 59.3893L127.388 57.5221C127.813 56.1745 127.897 55.6108 127.693 55.4964C127.151 55.1928 122.254 54.0562 119.823 53.6694C116.472 53.1364 107.867 52.9999 104.528 53.4267ZM141.533 57.0672L141.604 59.0934L153.656 59.157L165.709 59.2208V57.1308V55.041H153.585H141.461L141.533 57.0672ZM141.533 65.1719L141.604 67.198L149.618 67.2629L157.633 67.3275V65.2367V63.1457H149.547H141.461L141.533 65.1719ZM161.793 65.2333V67.3208H163.751H165.709V65.2333V63.1457H163.751H161.793V65.2333ZM107.342 67.4829C98.6968 68.8541 91.1483 74.5758 87.4059 82.5942C85.2423 87.2298 84.8897 89.9533 84.9939 101.219L85.0725 109.698L85.8801 111.343C86.7917 113.201 88.0581 114.391 90.0722 115.283L91.3612 115.854L92.0388 117.969C93.4741 122.448 96.7404 126.732 100.354 128.874C100.83 129.156 101.102 129.515 101.102 129.861C101.102 130.486 101.716 130.332 92.4942 132.025C89.1731 132.634 85.8534 133.36 85.1168 133.636C81.2005 135.107 78.2222 138.23 76.7296 142.432C76.3618 143.468 75.991 144.398 75.9056 144.499C75.82 144.599 74.1309 143.044 72.1518 141.042C67.2911 136.125 67.2471 136.825 72.7697 131.249L76.9858 126.993L69.5271 119.499L62.0685 112.005L56.6767 117.476C52.1912 122.028 51.1528 123.217 50.5006 124.545C49.2807 127.028 48.8972 128.923 49.035 131.788C49.1659 134.517 49.6952 136.334 50.9773 138.458C51.49 139.307 57.056 145.051 67.0709 155.066C81.3674 169.364 82.4924 170.43 84.0706 171.182C88.4947 173.29 93.7773 173.055 97.7149 170.575C98.3419 170.18 101.394 167.536 104.497 164.7L110.139 159.542L108.625 158.007L107.112 156.472H128.702C140.576 156.472 150.291 156.387 150.291 156.283C150.291 155.649 145.312 141.277 144.68 140.086C143.141 137.189 140.413 134.768 137.421 133.645C136.672 133.363 133.343 132.634 130.022 132.025C120.802 130.332 121.412 130.485 121.429 129.869C121.44 129.494 121.998 128.93 123.297 127.983C124.315 127.24 125.633 126.064 126.226 125.368L127.303 124.105L130.171 124.008C133.369 123.9 134.353 123.555 135.764 122.049C137.54 120.153 137.443 121.137 137.443 105.02C137.443 92.0037 137.399 90.3217 137.004 88.4858C134.827 78.3545 127.577 70.6664 117.743 68.0591C116.106 67.6251 114.854 67.4925 111.87 67.437C109.783 67.3982 107.746 67.4191 107.342 67.4829ZM108.077 71.4979C103.275 72.2291 99.125 74.3233 95.6436 77.7717C93.6481 79.7483 92.3068 81.6752 91.0577 84.3605C89.4508 87.8153 89.3008 88.6631 89.1765 95.001L89.0649 100.7L90.0666 100.305C91.0472 99.9188 91.0682 99.8854 91.0682 98.7198V97.5292H93.4034C99.3411 97.5292 104.272 95.4227 109.074 90.8352L111.295 88.713L113.112 90.5596C117.566 95.0872 123.102 97.5292 128.909 97.5292H131.448V98.7198C131.448 99.881 131.472 99.9203 132.427 100.297L133.405 100.682V95.9026C133.405 90.6242 133.12 88.6076 131.939 85.548C130.312 81.3319 127.197 77.5025 123.295 74.923C118.916 72.0274 113.138 70.7273 108.077 71.4979ZM160.729 85.2936C160.529 85.6069 158.928 88.268 157.172 91.207L153.978 96.5507L155.01 97.1898C155.578 97.5414 156.286 97.9825 156.584 98.1702C156.883 98.3581 157.216 98.5116 157.324 98.5116C157.434 98.5116 158.282 97.2318 159.209 95.6675C160.441 93.5908 160.95 92.921 161.097 93.1853C161.422 93.7684 162.688 98.9256 163.128 101.459C163.682 104.65 163.885 111.48 163.527 114.844C162.51 124.377 159.231 133.098 153.831 140.631C153.056 141.712 152.411 142.743 152.397 142.924C152.383 143.104 153.014 143.764 153.799 144.389L155.225 145.527L155.702 144.921C166.557 131.104 170.368 112.698 165.948 95.4416C165.567 93.9557 165.176 92.5337 165.078 92.2818C164.865 91.7314 164.936 91.765 168.265 93.7843C169.484 94.5238 170.557 95.1739 170.65 95.2294C170.828 95.3353 172.94 91.9195 172.778 91.7881C172.726 91.7464 170.316 90.2939 167.422 88.5605C164.528 86.8271 161.92 85.2548 161.627 85.0664C161.144 84.7567 161.058 84.7786 160.729 85.2936ZM110.501 95.1C109.68 96.0121 105.442 98.7021 103.56 99.506C101.535 100.371 97.5387 101.457 96.3596 101.462C94.8852 101.47 94.9192 101.294 95.0396 108.244C95.1443 114.293 95.1806 114.692 95.7946 116.563C97.4687 121.662 101.206 125.499 106.241 127.287C107.619 127.776 108.291 127.85 111.258 127.842C114.405 127.832 114.834 127.775 116.519 127.139C117.529 126.759 119.126 125.937 120.068 125.312L121.781 124.176L116.519 124.054L111.258 123.931V121.966V120.001L118.309 119.936L125.36 119.871L125.966 118.495C127.115 115.888 127.28 114.562 127.284 107.898C127.287 103.137 127.216 101.669 126.981 101.604C126.813 101.558 125.85 101.392 124.84 101.235C120.778 100.606 116.148 98.5184 112.96 95.879C112.099 95.1658 111.297 94.582 111.18 94.582C111.063 94.582 110.757 94.8151 110.501 95.1ZM90.1625 104.958C89.3645 105.838 89.1104 106.504 89.1104 107.717C89.1104 108.995 89.5022 109.9 90.4332 110.773L91.0682 111.368V107.887C91.0682 105.972 90.9772 104.406 90.8661 104.406C90.755 104.406 90.4383 104.654 90.1625 104.958ZM131.448 107.857V111.368L132.083 110.773C132.432 110.445 132.872 109.879 133.062 109.514C133.814 108.064 133.247 105.545 131.978 104.699L131.448 104.346V107.857ZM131.998 115.418C131.406 115.642 130.955 115.973 130.952 116.187C130.948 116.394 130.692 117.309 130.383 118.221L129.82 119.878H131.012C131.951 119.878 132.331 119.751 132.805 119.275C133.336 118.742 133.405 118.46 133.405 116.82C133.405 115.8 133.323 114.98 133.222 114.996C133.121 115.012 132.57 115.202 131.998 115.418ZM60.9679 118.772L59.8787 119.886L64.5191 124.548L69.1598 129.21L70.2618 128.104L71.364 126.998L66.7106 122.328L62.0574 117.658L60.9679 118.772ZM55.7088 124.095C53.523 126.522 52.5397 129.745 53.0859 132.693C53.7219 136.124 53.496 135.861 69.7051 152.08C87.0151 169.402 85.7269 168.384 90.3341 168.384C92.9284 168.384 93.2587 168.329 94.5602 167.688C95.3367 167.306 96.5481 166.456 97.2521 165.8L98.5323 164.607L93.8914 159.932C89.2651 155.272 89.2489 155.259 88.749 155.73C87.4713 156.935 84.4083 157.357 82.5562 156.583C81.4134 156.107 65.7998 140.563 65.0959 139.202C64.0953 137.267 64.2575 134.871 65.5149 133.011L66.1465 132.077L61.5171 127.431L56.8879 122.786L55.7088 124.095ZM108.224 134.271L111.251 137.316L114.244 134.319C115.89 132.671 117.213 131.299 117.184 131.269C117.155 131.24 116.525 131.385 115.785 131.592C113.91 132.115 108.804 132.13 106.759 131.618L105.198 131.227L108.224 134.271ZM94.4082 135.741C86.9167 137.137 85.502 137.584 83.5917 139.155C82.1336 140.354 81.1251 142.067 80.0143 145.232L79.0474 147.986L81.593 150.51C83.7397 152.638 84.2595 153.034 84.9107 153.034C85.7602 153.034 85.5984 153.162 91.345 147.938C93.3143 146.148 95.0225 144.684 95.1412 144.684C95.2599 144.684 97.061 146.397 99.1441 148.49L102.931 152.297H123.797C135.273 152.297 144.663 152.204 144.663 152.09C144.663 151.451 141.402 142.337 140.872 141.495C139.914 139.971 138.408 138.627 136.742 137.809C135.517 137.207 133.831 136.816 127.571 135.684L119.901 134.296L115.518 138.689L111.136 143.082L106.789 138.725C103.896 135.825 102.28 134.378 101.956 134.397C101.688 134.412 98.2917 135.017 94.4082 135.741ZM93.7203 151.269L92.4142 152.526L97.0686 157.205L101.723 161.883L103 160.585L104.278 159.287L99.6522 154.649L95.0261 150.011L93.7203 151.269Z" fill="black"/>
</g>
<defs>
<clipPath id="clip0_152_1943">
<rect x="0.936523" width="220" height="220" rx="110" fill="white"/>
</clipPath>
</defs>
</svg>
