<svg width="221" height="220" viewBox="0 0 221 220" fill="none" xmlns="http://www.w3.org/2000/svg">
<g clip-path="url(#clip0_152_1868)">
<rect x="0.646484" width="220" height="220" rx="110" fill="#CEE7DB"/>
<rect x="0.646484" width="220" height="220" rx="110" fill="#FFEDD3"/>
<path d="M143 186C143 215.271 89.2711 229 60 229C30.7289 229 7 205.271 7 176C7 146.729 22.2289 141.5 51.5 141.5C80.7711 141.5 143 156.729 143 186Z" fill="#FFC97C"/>
<path d="M241 50.5C241 79.7711 187.271 93.5 158 93.5C128.729 93.5 105 69.7711 105 40.5C105 11.2289 120.229 6 149.5 6C178.771 6 241 21.2289 241 50.5Z" fill="#FFC97C"/>
<path d="M64.5 156L65.5 57.5L123 58L133 66H150.5V117L176.5 137L177.5 141L174 143L167 140V172H125.5V165.5H74V156H64.5Z" fill="#FFEDD3"/>
<path fill-rule="evenodd" clip-rule="evenodd" d="M64.5465 56.3828L64 56.7653V106.863C64 155.085 64.0167 156.977 64.4496 157.368C64.8262 157.709 65.5033 157.775 68.6288 157.775H72.3583V161.69V165.606L73.0061 166.115C73.6517 166.623 73.7352 166.625 98.5728 166.625H123.492L123.497 168.53C123.505 171.297 124.435 173.041 126.273 173.738C126.742 173.915 133.247 174 146.454 174H165.943L167.014 173.434C167.746 173.047 168.264 172.529 168.651 171.797L169.217 170.727V156.487V142.246L170.229 143.048C170.786 143.489 171.781 143.99 172.441 144.161C176.484 145.209 179.877 140.988 178.041 137.194C177.588 136.26 175.898 134.883 164.643 126.274L151.762 116.424V91.1559C151.762 66.6475 151.748 65.8705 151.293 65.3075L150.823 64.7271L141.767 64.6568L132.71 64.5865L128.393 60.2932L124.075 56H94.5839C68.29 56 65.0335 56.0415 64.5465 56.3828ZM67.0107 106.949L67.0729 154.702L95.2823 154.765L123.492 154.827V148.68C123.492 145.299 123.44 142.533 123.376 142.533C123.312 142.533 122.772 142.878 122.174 143.299C120.282 144.633 117.884 144.665 116.2 143.38L115.412 142.779H105.703H95.994L95.4802 142.126C94.9369 141.435 94.9851 140.747 95.6245 140.075C95.9217 139.763 97.3684 139.695 105.063 139.636C113.958 139.568 114.15 139.556 114.15 139.075C114.15 138.258 114.867 136.804 115.686 135.957L116.459 135.158H106.359C96.9776 135.158 96.2194 135.127 95.7091 134.713C94.9824 134.125 94.9824 132.996 95.7091 132.407C96.2231 131.991 97.0518 131.963 108.492 131.963H120.725L130.461 124.526L140.196 117.09L140.202 97.2385L140.208 77.3875H131.659C124.319 77.3875 123.032 77.3334 122.563 77.0047L122.017 76.6222V67.9089V59.1958H94.4826H66.9488L67.0107 106.949ZM124.967 67.8V74.1917H131.418H137.869L131.481 67.8C127.968 64.2846 125.065 61.4083 125.03 61.4083C124.995 61.4083 124.967 64.2846 124.967 67.8ZM139.597 71.4905L143.281 75.1809L143.347 94.8692C143.409 113.432 143.437 114.548 143.839 114.383C145.045 113.89 146.102 113.731 147.271 113.869L148.567 114.021V90.9105V67.8H142.24H135.912L139.597 71.4905ZM74.6937 82.592C74.4233 82.7486 74.1207 82.9969 74.0214 83.1437C73.9221 83.2905 73.8392 86.6935 73.837 90.7065C73.8331 98.568 73.8351 98.581 75.1412 98.9087C75.4362 98.9827 78.8115 99.0105 82.642 98.9707C89.207 98.9021 89.6269 98.8706 89.9556 98.4208C90.4691 97.7179 90.4691 83.6071 89.9556 82.9042C89.6259 82.4531 89.2129 82.4239 82.3962 82.3673C77.2824 82.3248 75.0423 82.3902 74.6937 82.592ZM95.6277 85.7038C95.031 86.3629 95.1043 87.6029 95.7673 88.0672C96.2496 88.4053 98.4066 88.45 114.172 88.45C131.866 88.45 132.035 88.4453 132.677 87.9404C133.456 87.3283 133.519 86.432 132.833 85.7458C132.351 85.263 132.014 85.2542 114.188 85.2542C96.9134 85.2542 96.0149 85.276 95.6277 85.7038ZM77.0292 90.6625V95.825H82.1917H87.3542V90.6625V85.5H82.1917H77.0292V90.6625ZM95.7673 93.2578C95.0785 93.7401 95.0244 95.0794 95.6705 95.664C96.0803 96.0347 97.7234 96.0708 114.231 96.0708C132.014 96.0708 132.351 96.062 132.833 95.5792C133.519 94.893 133.456 93.9967 132.677 93.3846C132.035 92.8797 131.866 92.875 114.172 92.875C98.4066 92.875 96.2496 92.9197 95.7673 93.2578ZM74.6937 105.952C74.4233 106.106 74.1207 106.351 74.0214 106.498C73.9221 106.645 73.8392 110.048 73.837 114.061C73.8331 121.922 73.8351 121.935 75.1412 122.263C75.4362 122.337 78.8115 122.365 82.642 122.325C89.207 122.256 89.6269 122.225 89.9556 121.775C90.238 121.388 90.3034 119.92 90.3005 114.031C90.2983 110.034 90.2154 106.643 90.1161 106.494C89.6163 105.746 88.763 105.658 82.0235 105.666C77.3915 105.671 75.0269 105.763 74.6937 105.952ZM95.7673 108.991C95.3855 109.258 95.2208 109.625 95.2208 110.206C95.2208 111.882 94.3022 111.804 114.172 111.804C131.866 111.804 132.035 111.799 132.677 111.295C133.456 110.682 133.519 109.786 132.833 109.1C132.351 108.617 132.014 108.608 114.328 108.608C98.4213 108.608 96.2496 108.653 95.7673 108.991ZM77.0292 114.012V119.179H82.1966H87.3642L87.2976 114.078L87.2312 108.977L82.1302 108.911L77.0292 108.844V114.012ZM95.7673 116.612C95.0785 117.094 95.0244 118.434 95.6705 119.018C96.0803 119.389 97.732 119.425 114.354 119.425C132.26 119.425 132.596 119.416 133.079 118.933C133.575 118.438 133.717 117.565 133.383 117.065C132.844 116.258 132.182 116.229 114.221 116.229C98.4113 116.229 96.2496 116.274 95.7673 116.612ZM132.086 127.195C124.722 132.82 118.394 137.709 118.022 138.058C117.16 138.866 117.132 139.883 117.949 140.701C118.671 141.422 119.187 141.456 120.173 140.845C120.579 140.594 126.497 136.116 133.325 130.893C142.509 123.869 145.912 121.398 146.4 121.395C146.895 121.392 150.264 123.843 159.798 131.142C166.804 136.505 172.828 141.005 173.187 141.143C174.482 141.641 175.825 140.124 175.272 138.788C175.085 138.336 171.338 135.321 163.808 129.562C145.889 115.859 147.421 116.967 146.387 116.967C145.562 116.967 144.178 117.956 132.086 127.195ZM136.547 132.366L126.687 139.896V155.055C126.687 166.518 126.76 170.286 126.983 170.509C127.196 170.722 128.933 170.804 133.251 170.804H139.225V161.34C139.225 152.203 139.242 151.858 139.717 151.383C140.183 150.917 140.536 150.892 146.439 150.892C152.163 150.892 152.703 150.928 153.076 151.341C153.44 151.743 153.483 152.796 153.483 161.298V170.804L159.445 170.8C162.723 170.798 165.545 170.708 165.715 170.6C165.959 170.445 166.011 167.176 165.961 155.076L165.898 139.749L156.802 132.768C151.799 128.929 147.414 125.574 147.056 125.312L146.407 124.837L136.547 132.366ZM74.4811 129.522L73.8333 130.031V137.389C73.8333 144.418 73.8552 144.768 74.325 145.238C74.7945 145.707 75.1444 145.729 82.0687 145.729C88.9931 145.729 89.343 145.707 89.8125 145.238C90.2823 144.768 90.3039 144.421 90.3005 137.432C90.2983 133.41 90.2154 129.997 90.1161 129.848C89.6171 129.101 88.7586 129.013 81.9952 129.013C75.4209 129.013 75.1013 129.034 74.4811 129.522ZM77.0292 137.366V142.533H82.1966H87.3642L87.2976 137.432L87.2312 132.331L82.1302 132.265L77.0292 132.198V137.366ZM142.421 162.446V170.804H146.354H150.287V162.446V154.088H146.354H142.421V162.446ZM75.5542 160.602V163.429H99.5229H123.492V160.602V157.775H99.5229H75.5542V160.602Z" fill="#1C3D2D" stroke="#1C3D2D"/>
</g>
<defs>
<clipPath id="clip0_152_1868">
<rect x="0.646484" width="220" height="220" rx="110" fill="white"/>
</clipPath>
</defs>
</svg>
