<svg width="221" height="220" viewBox="0 0 221 220" fill="none" xmlns="http://www.w3.org/2000/svg">
<g clip-path="url(#clip0_152_1922)">
<rect x="0.936523" width="220" height="220" rx="110" fill="#CEE7DB"/>
<rect x="0.936523" width="220" height="220" rx="110" fill="#D9FFE8"/>
<path d="M143.29 186C143.29 215.271 89.5611 229 60.29 229C31.0189 229 7.29004 205.271 7.29004 176C7.29004 146.729 22.5189 141.5 51.79 141.5C81.0611 141.5 143.29 156.729 143.29 186Z" fill="#7AA68B"/>
<path d="M241.29 50.5C241.29 79.7711 187.561 93.5 158.29 93.5C129.019 93.5 105.29 69.7711 105.29 40.5C105.29 11.2289 120.519 6 149.79 6C179.061 6 241.29 21.2289 241.29 50.5Z" fill="#7AA68B"/>
<path d="M55.5264 135.424V60.1696L57.5603 55.5933L62.1365 51.5255H89.0857L94.1704 53.0509L97.7298 57.1187L98.7467 60.1696V75.9323H124.17V57.1187L126.713 54.0679L131.289 51.5255H159.255L163.323 53.0509L167.391 58.6442V136.441L162.306 142.542L159.255 143.559H132.815V164.915L126.713 168.983H95.6959L92.1365 166.441L90.6111 163.39L89.0857 143.559H62.1365L57.5603 141.017L55.5264 135.424Z" fill="#D9FFE8"/>
<path d="M95.7558 135.719C95.4852 135.42 95.3443 135.031 95.3612 134.625C95.3838 134.225 95.5641 133.853 95.8629 133.582C96.4772 133.03 97.4241 133.075 97.9822 133.689L99.4872 135.42L102.959 129.766H102.953C103.421 129.175 104.25 129.017 104.892 129.4C105.541 129.778 105.811 130.572 105.524 131.266L101.015 138.633C100.772 139.038 100.35 139.309 99.8761 139.354H99.7859C99.3575 139.354 98.9574 139.174 98.6699 138.858L95.7558 135.719ZM108.877 135.719H125.849C126.678 135.719 127.348 135.042 127.348 134.214C127.348 133.385 126.678 132.709 125.849 132.709H108.877C108.049 132.709 107.372 133.385 107.372 134.214C107.372 135.042 108.049 135.719 108.877 135.719ZM98.6699 151.348C98.9573 151.664 99.3575 151.844 99.7859 151.844H99.9212C100.389 151.799 100.812 151.54 101.06 151.14L105.569 143.762V143.756C105.856 143.063 105.586 142.268 104.938 141.89C104.295 141.507 103.467 141.665 102.999 142.257L99.5266 147.91L97.9823 146.073C97.723 145.751 97.3397 145.548 96.9282 145.515C96.5168 145.481 96.1053 145.622 95.801 145.898C95.491 146.18 95.3162 146.569 95.305 146.986C95.2993 147.397 95.4628 147.797 95.7559 148.085L98.6699 151.348ZM108.877 148.164H125.849C126.678 148.164 127.348 147.487 127.348 146.659C127.348 145.83 126.678 145.154 125.849 145.154H108.877C108.049 145.154 107.372 145.83 107.372 146.659C107.372 147.487 108.049 148.164 108.877 148.164ZM98.6699 163.793C98.9573 164.109 99.3575 164.289 99.7859 164.289H99.9212C100.389 164.244 100.812 163.985 101.06 163.585L105.569 156.218C105.839 155.874 105.946 155.435 105.868 155.006C105.789 154.584 105.524 154.211 105.146 153.992C104.774 153.772 104.323 153.727 103.912 153.862C103.5 154.003 103.168 154.313 102.999 154.713L99.5267 160.378L98.0217 158.647L98.0274 158.653C97.7681 158.332 97.3848 158.129 96.9734 158.095C96.5619 158.061 96.1504 158.202 95.8461 158.478C95.5361 158.76 95.3613 159.149 95.3501 159.566C95.3444 159.978 95.5079 160.378 95.801 160.665L98.6699 163.793ZM108.877 160.609H125.849C126.678 160.609 127.348 159.933 127.348 159.104C127.348 158.275 126.678 157.599 125.849 157.599H108.877C108.049 157.599 107.372 158.275 107.372 159.104C107.372 159.933 108.049 160.609 108.877 160.609ZM111.087 104.994C109.582 104.994 108.184 103.986 108.184 102.802C108.184 101.613 109.509 100.609 111.087 100.609V100.604C112.231 100.536 113.313 101.117 113.882 102.109C114.226 102.825 115.066 103.151 115.804 102.853C116.537 102.554 116.915 101.737 116.661 100.981C115.917 99.2961 114.395 98.0843 112.592 97.718V96.5738V96.5794C112.592 95.7452 111.915 95.0744 111.087 95.0744C110.258 95.0744 109.582 95.7452 109.582 96.5794V97.7349C107.13 98.1801 105.309 100.249 105.18 102.74C105.388 105.801 108.026 108.123 111.087 107.943C112.592 107.943 114.001 108.951 114.001 110.135C114.001 111.324 112.665 112.328 111.087 112.328C109.954 112.39 108.889 111.809 108.319 110.828C108.161 110.456 107.863 110.169 107.491 110.022C107.119 109.876 106.702 109.881 106.335 110.045C105.58 110.377 105.23 111.257 105.557 112.012C106.318 113.652 107.812 114.83 109.582 115.185V116.341C109.582 117.175 110.258 117.846 111.087 117.846C111.915 117.846 112.592 117.175 112.592 116.341V115.185C115.049 114.746 116.881 112.671 117.011 110.18C116.763 107.142 114.13 104.859 111.087 105.04L111.087 104.994ZM143.073 110.856H160.039C160.873 110.856 161.544 110.186 161.544 109.351C161.544 108.523 160.874 107.852 160.039 107.852H143.073C142.239 107.852 141.568 108.523 141.568 109.351C141.568 110.186 142.239 110.856 143.073 110.856ZM143.073 123.301H160.039C160.873 123.301 161.544 122.631 161.544 121.797C161.544 120.968 160.874 120.297 160.039 120.297H143.073C142.239 120.297 141.568 120.968 141.568 121.797C141.568 122.631 142.239 123.301 143.073 123.301ZM160.045 132.725H143.073C142.239 132.725 141.568 133.396 141.568 134.23C141.568 135.059 142.239 135.73 143.073 135.73H160.039C160.873 135.73 161.544 135.059 161.544 134.23C161.544 133.396 160.874 132.725 160.039 132.725H160.045ZM145.284 83.1251C146.862 83.1251 148.198 84.134 148.198 85.3176C148.198 86.5069 146.862 87.5101 145.284 87.5101V87.5158C144.151 87.5721 143.08 86.9916 142.516 86.0108C142.37 85.6276 142.077 85.3232 141.699 85.1597C141.327 85.0019 140.899 85.0019 140.527 85.1597C140.149 85.3176 139.85 85.6276 139.71 86.0052C139.563 86.3885 139.574 86.8112 139.749 87.1832C140.493 88.8573 141.992 90.069 143.779 90.4579V91.6021C143.779 92.4307 144.45 93.1071 145.284 93.1071C146.113 93.1071 146.783 92.4307 146.783 91.6021V90.4466C149.241 90.007 151.073 87.9328 151.202 85.4414C150.994 82.3752 148.35 80.0474 145.284 80.239C143.779 80.239 142.381 79.2301 142.381 78.0465C142.381 76.8572 143.706 75.854 145.284 75.854V75.8483C146.439 75.792 147.527 76.4063 148.08 77.4266C148.395 78.1988 149.269 78.5651 150.041 78.2495C150.808 77.9339 151.174 77.0546 150.858 76.288C150.109 74.6083 148.587 73.3965 146.783 73.0414V71.8803C146.783 71.0518 146.113 70.381 145.284 70.381C144.45 70.381 143.779 71.0517 143.779 71.8803V73.0414C141.327 73.4811 139.501 75.5553 139.377 78.0466C139.625 81.0734 142.246 83.3505 145.284 83.1701L145.284 83.1251ZM64.8412 50H89.4892C95.4637 50.0056 100.305 54.8473 100.311 60.8219V74.8622H122.405V60.8219C122.411 54.8473 127.252 50.0056 133.227 50H157.954C163.929 50 168.782 54.8417 168.787 60.8219V134.304C168.782 140.284 163.934 145.132 157.954 145.143H134.518V160.982C134.518 165.964 130.483 170 125.5 170H97.216C92.2334 170 88.1977 165.964 88.1977 160.982V145.143H64.8398C58.8539 145.132 54.0066 140.284 54.001 134.304V60.8219C54.0066 54.8417 58.8596 50 64.8398 50H64.8412ZM88.1992 142.138V100.411H57.0076V134.303C57.0189 138.626 60.5191 142.126 64.8422 142.132L88.1992 142.138ZM97.2174 77.8657C93.8976 77.8657 91.2034 80.5543 91.2034 83.8741V85.7398H131.516V83.8741C131.516 82.279 130.884 80.7515 129.757 79.6243C128.63 78.4971 127.097 77.8657 125.502 77.8657H97.2174ZM91.2034 122.264H131.516V88.7453H91.2034V122.264ZM131.516 125.268H91.2034V160.981C91.2034 162.576 91.8346 164.109 92.962 165.236C94.0893 166.363 95.6224 166.995 97.2174 166.995H125.502C127.097 166.995 128.63 166.364 129.757 165.236C130.884 164.109 131.516 162.576 131.516 160.981V125.268ZM165.711 100.411H134.52V142.132H157.956C162.273 142.126 165.779 138.626 165.785 134.303L165.711 100.411ZM125.411 60.8205H165.711C165.7 56.5311 162.245 53.0423 157.956 53.0027H133.228C128.911 53.0027 125.411 56.503 125.411 60.8205ZM125.411 74.8608H125.501V74.8552C130.483 74.8552 134.519 78.8965 134.519 83.8734V97.4008H165.711V63.8702H125.41L125.411 74.8608ZM97.3026 74.8608L97.3082 63.8698H57.0075V97.4004H88.1991V83.873C88.1991 78.8961 92.2348 74.8547 97.2173 74.8547L97.3026 74.8608ZM89.4848 53.0078L64.8426 53.0021C60.5195 53.0021 57.0193 56.4967 57.008 60.8199H97.3088C97.3088 56.5024 93.8085 53.0021 89.491 53.0021L89.4848 53.0078ZM79.6437 107.85H62.6778C61.8437 107.85 61.1729 108.521 61.1729 109.35C61.1729 110.184 61.8436 110.855 62.6778 110.855H79.6437C80.4779 110.855 81.1486 110.184 81.1486 109.35C81.1486 108.521 80.4779 107.85 79.6437 107.85ZM79.6437 120.295H62.6778C61.8437 120.295 61.1729 120.966 61.1729 121.795C61.1729 122.629 61.8436 123.3 62.6778 123.3H79.6437C80.4779 123.3 81.1486 122.629 81.1486 121.795C81.1486 120.966 80.4779 120.295 79.6437 120.295ZM79.6437 132.724H62.6778C61.8437 132.724 61.1729 133.394 61.1729 134.229C61.1729 135.057 61.8436 135.728 62.6778 135.728H79.6437C80.4779 135.728 81.1486 135.057 81.1486 134.229C81.1486 133.395 80.4779 132.724 79.6437 132.724ZM77.4343 80.1192C75.856 80.1192 74.5203 79.1103 74.5203 77.9267C74.5203 76.7374 75.8561 75.7342 77.4343 75.7342V75.7286C78.5897 75.6778 79.672 76.2922 80.2187 77.3068C80.5343 78.0734 81.408 78.4397 82.1802 78.1241C82.9467 77.8085 83.3131 76.9348 82.9975 76.1626C82.2478 74.4885 80.7373 73.2768 78.9393 72.916V71.7606C78.9393 70.932 78.2685 70.2556 77.4343 70.2556C76.6057 70.2556 75.935 70.932 75.935 71.7606V72.916C73.4775 73.3557 71.6456 75.4299 71.516 77.9212C71.7246 80.9874 74.3681 83.3153 77.4343 83.1237C79.0126 83.1237 80.337 84.1326 80.337 85.3162C80.337 86.5055 79.0125 87.5087 77.4343 87.5087V87.5143C76.3014 87.5763 75.2249 86.9958 74.6555 86.0094C74.3117 85.2767 73.455 84.9497 72.7109 85.2654C71.9668 85.581 71.6062 86.4265 71.888 87.1817C72.6376 88.8558 74.1369 90.0732 75.9349 90.4564V91.6006C75.9349 92.4292 76.6057 93.1056 77.4343 93.1056C78.2685 93.1056 78.9392 92.4292 78.9392 91.6006V90.4452C81.3911 89.9999 83.2172 87.9257 83.3413 85.44C83.2624 83.952 82.5917 82.5654 81.4869 81.5734C80.3765 80.587 78.9224 80.074 77.4343 80.1643V80.1192Z" fill="#1C3D2D" stroke="#1C3D2D"/>
</g>
<defs>
<clipPath id="clip0_152_1922">
<rect x="0.936523" width="220" height="220" rx="110" fill="white"/>
</clipPath>
</defs>
</svg>
