<svg width="221" height="220" viewBox="0 0 221 220" fill="none" xmlns="http://www.w3.org/2000/svg">
<g clip-path="url(#clip0_152_1900)">
<rect x="0.646484" width="220" height="220" rx="110" fill="#CEE7DB"/>
<rect x="0.646484" width="220" height="220" rx="110" fill="#FFEDD3"/>
<path d="M143 186C143 215.271 89.2711 229 60 229C30.7289 229 7 205.271 7 176C7 146.729 22.2289 141.5 51.5 141.5C80.7711 141.5 143 156.729 143 186Z" fill="#FFC97C"/>
<path d="M241 50.5C241 79.7711 187.271 93.5 158 93.5C128.729 93.5 105 69.7711 105 40.5C105 11.2289 120.229 6 149.5 6C178.771 6 241 21.2289 241 50.5Z" fill="#FFC97C"/>
<path d="M115.866 104.133H100.133V167.067H115.866V104.133Z" fill="#FFEDD3" stroke="#1C3D2D" stroke-width="4" stroke-miterlimit="10" stroke-linejoin="round"/>
<path d="M92.2665 117.9H76.5332V167.067H92.2665V117.9Z" fill="#FFEDD3" stroke="#1C3D2D" stroke-width="4" stroke-miterlimit="10" stroke-linejoin="round"/>
<path d="M68.6669 137.567H52.9336V167.067H68.6669V137.567Z" fill="#FFEDD3" stroke="#1C3D2D" stroke-width="4" stroke-miterlimit="10" stroke-linejoin="round"/>
<path d="M163.067 88.3999H147.334V167.067H163.067V88.3999Z" fill="#FFEDD3" stroke="#1C3D2D" stroke-width="4" stroke-miterlimit="10" stroke-linejoin="round"/>
<path d="M139.468 131.667H123.734V167.067H139.468V131.667Z" fill="#FFEDD3" stroke="#1C3D2D" stroke-width="4" stroke-miterlimit="10" stroke-linejoin="round"/>
<path d="M62.7671 108.067C62.7671 110.24 61.0069 112 58.8337 112C56.6606 112 54.9004 110.24 54.9004 108.067C54.9004 105.894 56.6606 104.133 58.8337 104.133C61.0069 104.133 62.7671 105.894 62.7671 108.067ZM82.4337 88.4C80.2606 88.4 78.5004 90.1602 78.5004 92.3333C78.5004 94.5065 80.2606 96.2667 82.4337 96.2667C84.6069 96.2667 86.3671 94.5065 86.3671 92.3333C86.3671 90.1602 84.6069 88.4 82.4337 88.4ZM131.6 78.5667C129.427 78.5667 127.667 80.3268 127.667 82.5C127.667 84.6732 129.427 86.4333 131.6 86.4333C133.774 86.4333 135.534 84.6732 135.534 82.5C135.534 80.3268 133.774 78.5667 131.6 78.5667ZM108 68.7333C105.827 68.7333 104.067 70.4935 104.067 72.6667C104.067 74.8398 105.827 76.6 108 76.6C110.174 76.6 111.934 74.8398 111.934 72.6667C111.934 70.4935 110.174 68.7333 108 68.7333ZM157.167 53C154.994 53 153.234 54.7602 153.234 56.9333C153.234 59.1065 154.994 60.8667 157.167 60.8667C159.34 60.8667 161.1 59.1065 161.1 56.9333C161.1 54.7602 159.34 53 157.167 53Z" fill="#FFEDD3" stroke="#1C3D2D" stroke-width="4" stroke-miterlimit="10" stroke-linejoin="round"/>
<path d="M79.1604 94.5144L62.1035 105.886C62.1822 106.004 62.2412 106.133 62.3061 106.259" stroke="#1C3D2D" stroke-width="4" stroke-miterlimit="10" stroke-linejoin="round"/>
<path d="M118.493 77.0405L111.625 74.179C111.031 75.6009 109.631 76.5999 107.995 76.5999C106.726 76.5999 105.609 75.9883 104.889 75.0561L85.5332 89.9457C86.0445 90.6085 86.3612 91.4306 86.3612 92.3333" stroke="#1C3D2D" stroke-width="4" stroke-miterlimit="10" stroke-linejoin="round"/>
<path d="M118.494 77.0404L127.966 80.9875C128.56 79.5656 129.96 78.5666 131.596 78.5666C132.682 78.5666 133.665 79.0071 134.377 79.719L154.382 59.7141" stroke="#1C3D2D" stroke-width="4" stroke-miterlimit="10" stroke-linejoin="round"/>
<path d="M49 167.067H167" stroke="#1C3D2D" stroke-width="4" stroke-miterlimit="10" stroke-linejoin="round"/>
</g>
<defs>
<clipPath id="clip0_152_1900">
<rect x="0.646484" width="220" height="220" rx="110" fill="white"/>
</clipPath>
</defs>
</svg>
