<svg width="221" height="220" viewBox="0 0 221 220" fill="none" xmlns="http://www.w3.org/2000/svg">
<g clip-path="url(#clip0_152_1932)">
<rect x="0.936523" width="220" height="220" rx="110" fill="#CEE7DB"/>
<rect x="0.936523" width="220" height="220" rx="110" fill="#D9FFE8"/>
<path d="M143.29 186C143.29 215.271 89.5611 229 60.29 229C31.0189 229 7.29004 205.271 7.29004 176C7.29004 146.729 22.5189 141.5 51.79 141.5C81.0611 141.5 143.29 156.729 143.29 186Z" fill="#7AA68B"/>
<path d="M241.29 50.5C241.29 79.7711 187.561 93.5 158.29 93.5C129.019 93.5 105.29 69.7711 105.29 40.5C105.29 11.2289 120.519 6 149.79 6C179.061 6 241.29 21.2289 241.29 50.5Z" fill="#7AA68B"/>
<path d="M93.0116 159.651L81.3421 166.277L64.0916 137.735L60.54 126.522L70.18 121.426L75.7611 128.051L102.652 111.742L108.74 113.781L95.1538 76.3721L89.0654 74.843L88.0506 73.314L102.764 64.6496V54.1123H111.39V60.5722L127.625 51.9077L160.065 72.238L161.587 75.8058L154.484 77.3348V115.732L161.587 118.281L163.109 123.377L161.587 130.003L136.138 155.574L129.035 156.593L95.5484 147.419L89.46 150.987L93.0116 159.651Z" fill="#D9FFE8"/>
<path fill-rule="evenodd" clip-rule="evenodd" d="M104.504 51.4033C104.064 51.6248 103.469 52.1588 103.182 52.5897C102.675 53.3503 102.66 53.5357 102.66 58.9516V64.53L98.3944 66.8142C96.0481 68.0706 93.7351 69.4311 93.2543 69.8376C90.4675 72.1941 90.9105 76.89 94.1004 78.8087C95.7552 79.8041 97.5746 79.9583 99.2692 79.2473C99.6499 79.0875 99.6715 79.8573 99.6715 93.5557C99.6715 107.837 99.6782 108.047 100.159 109.043C100.452 109.651 101.018 110.3 101.579 110.672C102.504 111.287 102.541 111.292 107.347 111.366L112.183 111.441L113.041 112.218C114.975 113.971 116.197 114.118 118.721 112.905C119.644 112.461 120.476 112.098 120.569 112.098C120.662 112.098 120.925 112.695 121.153 113.424C121.784 115.446 122.338 116.383 123.227 116.934C123.976 117.398 124.279 117.43 127.245 117.361L130.454 117.286L131.271 116.491C131.873 115.905 132.251 115.196 132.704 113.8L133.32 111.904L135.112 112.808C137.789 114.158 139.092 114.027 140.811 112.233L141.603 111.406L146.214 111.389C151.852 111.368 152.587 111.154 153.733 109.21L154.273 108.294L154.337 93.7192L154.401 79.1442L155.026 79.3865C155.969 79.7515 158.085 79.6833 159.11 79.2544C162.711 77.7484 163.761 72.9211 161.089 70.1624C160.316 69.3645 152.54 65.0735 132.884 54.5972C128.513 52.2679 127.378 51.9066 125.803 52.3428C125.326 52.4747 122.642 53.8087 119.837 55.3071C117.033 56.8055 114.659 58.066 114.562 58.1082C114.465 58.1506 114.385 57.1025 114.385 55.7791C114.385 53.6616 114.323 53.2791 113.863 52.5897C112.961 51.2349 112.172 51 108.523 51C105.917 51 105.152 51.0768 104.504 51.4033ZM106.339 58.6247V62.5611L108.465 61.405L110.592 60.249L110.656 57.4686L110.721 54.6883H108.53H106.339V58.6247ZM125.075 56.6665C124.19 57.1369 117.931 60.498 111.166 64.1358C104.402 67.7734 98.2137 71.0964 97.4153 71.5202C95.7556 72.4014 95.0735 73.1452 95.0735 74.0737C95.0735 75.0517 95.9947 75.994 96.9403 75.9837C97.5128 75.9772 101.513 73.93 112.123 68.2137C120.046 63.9449 126.749 60.4523 127.017 60.4523C127.434 60.4523 134.86 64.3735 150.479 72.8411C156.565 76.1404 156.738 76.2117 157.681 75.816C159.045 75.2449 159.406 73.862 158.468 72.8088C157.909 72.1808 128.208 56.1125 127.259 55.9248C126.876 55.8489 126.149 56.0956 125.075 56.6665ZM115.19 70.7109L103.465 77.0253V92.3139V107.602L106.606 107.666L109.748 107.73L109.911 106.975C110.001 106.559 110.423 105.521 110.85 104.668C111.277 103.815 111.626 103.072 111.626 103.015C111.626 102.959 110.928 102.685 110.074 102.405C106.675 101.291 106.122 100.477 106.114 96.5855C106.108 93.7789 106.36 92.911 107.449 91.9922C107.841 91.6612 108.864 91.1604 109.722 90.8793C110.58 90.5983 111.363 90.2939 111.463 90.2029C111.563 90.112 111.227 89.1706 110.716 88.111C110.205 87.0513 109.789 85.9714 109.792 85.7111C109.802 84.7325 110.713 83.3374 112.463 81.6186C115.135 78.9948 115.788 78.8562 118.739 80.2876C119.793 80.7987 120.679 81.1877 120.708 81.1522C120.736 81.1167 121.035 80.2481 121.372 79.2221C122.013 77.272 122.704 76.3613 123.883 75.9147C124.848 75.5493 129.415 75.6032 130.34 75.9908C131.376 76.425 132.155 77.5374 132.779 79.4737C133.065 80.3613 133.323 81.1167 133.351 81.1522C133.38 81.1877 134.266 80.7987 135.32 80.2876C137.435 79.2618 137.908 79.1912 139.164 79.7139C140.102 80.1043 143.193 83.0262 143.714 84.0157C144.288 85.1042 144.125 86.5828 143.237 88.3503C142.795 89.2317 142.434 90.0332 142.435 90.1314C142.436 90.2296 143.23 90.5517 144.2 90.8473C147.153 91.7469 147.952 92.9597 147.944 96.5352C147.935 100.17 147.194 101.36 144.397 102.231C143.507 102.509 142.692 102.806 142.587 102.893C142.483 102.979 142.718 103.685 143.109 104.462C143.5 105.239 143.9 106.264 143.999 106.739L144.178 107.602H147.386H150.594L150.653 92.3614L150.712 77.1203L138.864 70.7462C132.347 67.2403 126.993 64.3774 126.965 64.3843C126.937 64.391 121.638 67.2382 115.19 70.7109ZM125.12 79.5313C125.066 79.6263 124.736 80.5861 124.386 81.664C123.645 83.9459 123.551 84.0886 122.399 84.6781C121.114 85.3357 120.341 85.2319 118.094 84.1001L116.064 83.0778L114.88 84.2802C114.228 84.9417 113.695 85.5999 113.695 85.7431C113.695 85.8865 114.167 86.9814 114.743 88.1769L115.791 90.3502L115.4 91.3677C114.822 92.8725 114.36 93.235 112.023 94.0177L109.902 94.7283L109.836 96.5599L109.77 98.3915L112.093 99.1551C114.594 99.9771 115.02 100.352 115.535 102.184C115.739 102.909 115.653 103.219 114.684 105.249L113.606 107.508L114.88 108.785L116.154 110.063L118.254 109.006C119.408 108.424 120.549 107.948 120.788 107.948C121.355 107.948 123.28 108.804 123.514 109.16C123.614 109.312 124.015 110.372 124.405 111.517L125.114 113.597H127.036H128.959L129.58 111.574C129.922 110.461 130.34 109.383 130.509 109.179C130.877 108.734 132.634 107.948 133.26 107.948C133.505 107.948 134.651 108.424 135.805 109.006L137.905 110.063L139.185 108.779L140.465 107.496L139.341 105.205L138.217 102.915L138.632 101.8C138.86 101.187 139.202 100.506 139.392 100.286C139.582 100.067 140.761 99.551 142.013 99.1397L144.289 98.3915L144.223 96.5613L144.157 94.7313L142.203 94.0788C141.128 93.7201 140.024 93.3088 139.75 93.1651C139.278 92.9177 138.295 90.9642 138.295 90.2748C138.295 90.0989 138.768 89.0088 139.347 87.8523L140.401 85.7496L139.077 84.4086L137.754 83.0674L135.874 84.0948C133.864 85.1937 133.086 85.3249 131.793 84.783C130.583 84.2758 130.355 83.9463 129.56 81.5526L128.831 79.3584H127.024C126.03 79.3584 125.174 79.4363 125.12 79.5313ZM124.258 87.7495C121.572 88.7844 119.879 90.2863 118.706 92.6759C118.001 94.1125 117.948 94.3813 117.948 96.5424C117.948 98.7608 117.987 98.943 118.809 100.612C122.533 108.168 133.28 107.253 135.79 99.1657C136.828 95.8209 135.867 92.339 133.222 89.8572C131.444 88.1896 129.893 87.5758 127.259 87.4986C125.823 87.4566 124.796 87.5424 124.258 87.7495ZM124.845 91.4373C123.678 91.9484 122.621 93.0035 122.056 94.2202C120.313 97.9732 122.904 102.052 127.03 102.052C132.632 102.052 134.608 94.7636 129.79 91.8664C128.716 91.2201 128.337 91.1182 127.04 91.126C126.212 91.1311 125.225 91.271 124.845 91.4373ZM155.652 115.006C153.861 115.459 152.069 116.53 142.756 122.719C137 126.543 132.264 129.634 132.23 129.589C132.197 129.543 131.896 129.027 131.562 128.442C130.858 127.208 129.716 126.139 128.358 125.445C127.729 125.123 121.451 123.731 110.03 121.383C91.0696 117.484 89.9631 117.328 87.2096 118.176C86.1606 118.5 78.7548 122.568 75.1659 124.792C74.3171 125.319 74.4044 125.394 73.0041 122.935C71.7804 120.786 71.5031 120.464 70.3775 119.888C69.695 119.539 69.16 119.449 68.1765 119.521C67.0212 119.605 66.3941 119.894 62.5258 122.126C60.1328 123.508 57.8899 124.845 57.5418 125.098C56.1539 126.108 55.5569 128.794 56.3673 130.382C57.6814 132.956 77.5389 167.206 78.0136 167.717C78.8569 168.624 80.3563 169.142 81.635 168.966C82.5849 168.835 87.5416 166.178 91.4076 163.726C92.7778 162.857 93.5606 161.477 93.5617 159.927C93.5626 158.946 93.3645 158.403 92.3065 156.488C91.6156 155.237 91.0645 154.159 91.0818 154.091C91.1581 153.795 94.3082 152.184 95.48 151.842C97.7231 151.188 98.8275 151.442 105.994 154.256C114.288 157.513 114.583 157.596 117.348 157.465C121.157 157.285 118.923 158.632 146.801 139.696C162.745 128.866 162.59 128.976 163.355 127.932C164.558 126.292 165.022 124.695 164.907 122.589C164.739 119.501 163.2 117.113 160.525 115.792C159.12 115.099 156.781 114.721 155.652 115.006ZM155.422 118.874C155.043 119.04 149.815 122.441 143.804 126.43C132.882 133.68 132.875 133.685 132.571 134.707C131.522 138.229 128.794 140.457 125.305 140.644C123.717 140.729 120.977 140.22 103.237 136.542C99.7407 135.817 99.2117 135.509 99.2117 134.196C99.2117 133.422 100.105 132.388 100.773 132.388C101.011 132.388 106.318 133.432 112.566 134.71C125.187 137.289 125.869 137.359 127.354 136.223C128.922 135.024 129.54 132.742 128.788 130.935C128.401 130.006 127.085 128.826 126.072 128.501C125.65 128.365 117.857 126.728 108.753 124.862C90.3227 121.085 89.7229 121.005 87.4687 122.049C86.5086 122.493 76.7513 128 76.2551 128.378C76.1878 128.429 87.7174 148.62 88.7835 150.318L89.1118 150.84L91.2342 149.693C93.8872 148.259 95.9471 147.74 98.2921 147.917C100.316 148.069 100.698 148.196 108.523 151.316L114.5 153.699L116.799 153.707C118.974 153.714 119.172 153.673 120.477 152.955C121.738 152.26 157.813 127.86 159.598 126.495C161.596 124.967 161.873 121.901 160.178 120.081C158.924 118.735 156.907 118.223 155.422 118.874ZM63.9222 125.565C61.1885 127.151 59.7615 128.111 59.7178 128.392C59.6419 128.881 80.2848 164.848 80.8412 165.196C81.1242 165.373 82.1872 164.859 85.5166 162.937C87.8869 161.568 89.8757 160.319 89.9367 160.16C89.9974 160.001 85.306 151.638 79.5112 141.576C71.5829 127.808 68.862 123.266 68.5179 123.222C68.2661 123.19 66.1982 124.244 63.9222 125.565Z" fill="#1C3D2D"/>
</g>
<defs>
<clipPath id="clip0_152_1932">
<rect x="0.936523" width="220" height="220" rx="110" fill="white"/>
</clipPath>
</defs>
</svg>
