<svg width="21" height="21" viewBox="0 0 21 21" fill="none" xmlns="http://www.w3.org/2000/svg">
<g clip-path="url(#clip0_35_912)">
<path d="M6.90437 10.3077C6.90437 8.4598 8.40203 6.96132 10.25 6.96132C12.0979 6.96132 13.5964 8.4598 13.5964 10.3077C13.5964 12.1557 12.0979 13.6542 10.25 13.6542C8.40203 13.6542 6.90437 12.1557 6.90437 10.3077ZM5.09534 10.3077C5.09534 13.1547 7.40305 15.4624 10.25 15.4624C13.0969 15.4624 15.4046 13.1547 15.4046 10.3077C15.4046 7.46081 13.0969 5.1531 10.25 5.1531C7.40305 5.1531 5.09534 7.46081 5.09534 10.3077ZM14.404 4.94877C14.404 5.61367 14.9432 6.15371 15.609 6.15371C16.2739 6.15371 16.8139 5.61367 16.8139 4.94877C16.8139 4.28386 16.2747 3.74464 15.609 3.74464C14.9432 3.74464 14.404 4.28386 14.404 4.94877ZM6.19405 18.4788C5.21534 18.4342 4.68342 18.2712 4.32988 18.1334C3.8612 17.9509 3.52713 17.7336 3.17522 17.3825C2.82411 17.0314 2.60599 16.6973 2.42436 16.2287C2.28651 15.8751 2.12353 15.3432 2.07893 14.3645C2.03028 13.3063 2.02055 12.9885 2.02055 10.3077C2.02055 7.62704 2.03109 7.31 2.07893 6.25101C2.12353 5.2723 2.28732 4.74119 2.42436 4.38684C2.6068 3.91816 2.82411 3.58409 3.17522 3.23217C3.52632 2.88107 3.86039 2.66295 4.32988 2.48132C4.68342 2.34347 5.21534 2.18049 6.19405 2.13589C7.25223 2.08724 7.57008 2.07751 10.25 2.07751C12.9307 2.07751 13.2477 2.08805 14.3067 2.13589C15.2854 2.18049 15.8165 2.34428 16.1709 2.48132C16.6396 2.66295 16.9736 2.88107 17.3256 3.23217C17.6767 3.58328 17.894 3.91816 18.0764 4.38684C18.2143 4.74038 18.3772 5.2723 18.4218 6.25101C18.4705 7.31 18.4802 7.62704 18.4802 10.3077C18.4802 12.9876 18.4705 13.3055 18.4218 14.3645C18.3772 15.3432 18.2134 15.8751 18.0764 16.2287C17.894 16.6973 17.6767 17.0314 17.3256 17.3825C16.9745 17.7336 16.6396 17.9509 16.1709 18.1334C15.8174 18.2712 15.2854 18.4342 14.3067 18.4788C13.2485 18.5274 12.9307 18.5372 10.25 18.5372C7.57008 18.5372 7.25223 18.5274 6.19405 18.4788ZM6.11134 0.330102C5.04263 0.378753 4.31285 0.548223 3.67471 0.796347C3.01466 1.05258 2.45517 1.39638 1.89649 1.95426C1.33861 2.51213 0.994809 3.07162 0.738577 3.73248C0.490454 4.37062 0.320984 5.1004 0.272332 6.16911C0.222869 7.23945 0.211517 7.58163 0.211517 10.3077C0.211517 13.0339 0.222869 13.376 0.272332 14.4464C0.320984 15.5151 0.490454 16.2449 0.738577 16.883C0.994809 17.5431 1.3378 18.1034 1.89649 18.6612C2.45436 19.2191 3.01385 19.5621 3.67471 19.8192C4.31366 20.0673 5.04263 20.2367 6.11134 20.2854C7.18249 20.334 7.52386 20.3462 10.25 20.3462C12.9769 20.3462 13.3183 20.3349 14.3886 20.2854C15.4573 20.2367 16.1871 20.0673 16.8253 19.8192C17.4853 19.5621 18.0448 19.2191 18.6035 18.6612C19.1613 18.1034 19.5043 17.5431 19.7614 16.883C20.0095 16.2449 20.1798 15.5151 20.2276 14.4464C20.2763 13.3752 20.2876 13.0339 20.2876 10.3077C20.2876 7.58163 20.2763 7.23945 20.2276 6.16911C20.179 5.1004 20.0095 4.37062 19.7614 3.73248C19.5043 3.07243 19.1613 2.51294 18.6035 1.95426C18.0456 1.39638 17.4853 1.05258 16.8261 0.796347C16.1871 0.548223 15.4573 0.377943 14.3894 0.330102C13.3191 0.28145 12.9769 0.269287 10.2508 0.269287C7.52386 0.269287 7.18249 0.280639 6.11134 0.330102Z" fill="white"/>
</g>
<defs>
<clipPath id="clip0_35_912">
<rect width="20.0769" height="20.0769" fill="white" transform="translate(0.211517 0.269287)"/>
</clipPath>
</defs>
</svg>
