<svg width="51" height="47" viewBox="0 0 51 47" fill="none" xmlns="http://www.w3.org/2000/svg">
<path d="M25.4798 1.00012C25.1358 1.00012 24.8079 1.13645 24.5645 1.37989C24.321 1.62332 24.1815 1.9544 24.1815 2.29849V7.07961C24.1847 7.79694 24.7657 8.37471 25.4798 8.37471C26.1971 8.37471 26.7781 7.79695 26.7814 7.07961V2.29849C26.7814 1.95443 26.6451 1.62335 26.4016 1.37989C26.1549 1.13645 25.8272 1.00012 25.4798 1.00012ZM8.44563 7.46581C8.10158 7.46256 7.7705 7.59889 7.52703 7.84232C7.02068 8.34868 7.02068 9.17315 7.52703 9.67944L10.8897 13.0616C11.1332 13.3083 11.4643 13.4446 11.8083 13.4446C12.1557 13.4479 12.4867 13.3115 12.7302 13.0681C12.9736 12.8214 13.1132 12.4903 13.1132 12.1463C13.1132 11.8022 12.9736 11.4711 12.7302 11.2277L9.36747 7.84873C9.12403 7.60205 8.79296 7.46581 8.44563 7.46581ZM42.514 7.46581C42.17 7.46581 41.8389 7.60538 41.5987 7.84882L38.2295 11.2277C37.986 11.4712 37.8497 11.8023 37.8497 12.1463C37.8497 12.4936 37.9893 12.8247 38.2327 13.0682C38.7423 13.5713 39.5636 13.568 40.0698 13.0617L43.439 9.67953H43.4358C43.9422 9.16993 43.9422 8.3487 43.4325 7.84241C43.1891 7.59897 42.8581 7.46256 42.514 7.46581ZM25.4832 9.51066C17.1605 9.51066 10.39 16.2977 10.39 24.6295C10.39 30.881 12.8926 34.1496 15.1354 36.6291C16.2228 37.8301 17.2128 38.8298 17.9431 40.0177H17.9398C17.995 40.1703 18.0761 40.3131 18.1833 40.4365C18.8194 41.6082 19.2025 42.9942 19.2025 44.9287H19.2057C19.2057 45.0131 19.2155 45.0975 19.235 45.1819C19.2382 45.2046 19.2414 45.2241 19.2447 45.2435C19.2674 45.3247 19.2934 45.4058 19.3323 45.4837C19.3356 45.4935 19.3421 45.5032 19.3486 45.5129C19.3843 45.5843 19.4265 45.6525 19.4719 45.7142C19.4816 45.7272 19.4914 45.7369 19.5011 45.7499C19.553 45.8148 19.6147 45.8732 19.6796 45.9284C19.6926 45.9414 19.7088 45.9511 19.7251 45.9641C19.7835 46.0095 19.8484 46.0485 19.9166 46.0842C19.9296 46.0907 19.9393 46.0939 19.949 46.1004C20.0269 46.1361 20.1048 46.1653 20.1892 46.1848C20.2087 46.1913 20.2282 46.1945 20.2477 46.1978C20.332 46.2173 20.4164 46.227 20.5041 46.227H30.462H30.4588C30.4977 46.227 30.5334 46.2238 30.5691 46.2238H30.5724C30.6762 46.214 30.7834 46.1913 30.884 46.1556C30.9164 46.1426 30.9521 46.1296 30.9814 46.1166H30.9846C31.0171 46.1004 31.0495 46.0874 31.0787 46.0712C31.0885 46.0647 31.1014 46.0582 31.1112 46.0517C31.1307 46.042 31.1501 46.029 31.1729 46.016L31.1826 46.0063C31.2086 45.9901 31.2345 45.9706 31.2605 45.9511C31.2605 45.9511 31.2637 45.9511 31.2637 45.9479C31.2832 45.9316 31.3027 45.9154 31.3222 45.8992C31.3319 45.8894 31.3449 45.8797 31.3579 45.8667L31.4163 45.8083V45.805C31.4423 45.7791 31.465 45.7531 31.4877 45.7239C31.5104 45.6947 31.5299 45.6687 31.5494 45.6363C31.5494 45.633 31.5526 45.633 31.5526 45.6298C31.5721 45.6038 31.5883 45.5746 31.6013 45.5454C31.6046 45.5454 31.6046 45.5454 31.6046 45.5421C31.6208 45.5129 31.637 45.4805 31.65 45.4512V45.4448C31.6662 45.4156 31.6792 45.3831 31.6889 45.3506C31.6889 45.3441 31.6922 45.3409 31.6922 45.3344C31.7117 45.2792 31.7279 45.2208 31.7376 45.1624C31.7409 45.1461 31.7441 45.1299 31.7474 45.1137C31.7506 45.0877 31.7539 45.0618 31.7539 45.0358C31.7571 45.0196 31.7571 45.0066 31.7571 44.9903C31.7604 44.9709 31.7604 44.9481 31.7604 44.9287C31.7604 43.0039 32.1434 41.6211 32.7731 40.4527V40.4494C32.8867 40.3228 32.9743 40.1735 33.0263 40.0112C33.7566 38.8265 34.7466 37.83 35.8307 36.6291C38.0736 34.1492 40.5761 30.8807 40.5761 24.6295C40.5761 16.2977 33.802 9.51062 25.4796 9.51062L25.4832 9.51066ZM25.4832 12.1073C32.4 12.1073 37.9796 17.6967 37.9796 24.6295C37.9796 30.2351 36.0743 32.4942 33.9061 34.89C32.9681 35.9254 31.9553 37.003 31.1082 38.2981H26.7815V32.7087L30.7284 28.2263V28.223C31.2023 27.6842 31.1472 26.8663 30.6116 26.3924C30.0728 25.9217 29.2548 25.9704 28.7777 26.5092L25.4799 30.2549L22.1821 26.5092H22.1853C21.9549 26.2496 21.6335 26.0938 21.2895 26.071C20.9454 26.0516 20.6079 26.1652 20.3514 26.3924C19.8126 26.8663 19.7607 27.6875 20.2346 28.223L24.1816 32.712V38.2949H19.8549C19.0045 36.9998 17.9917 35.9221 17.0569 34.8867C14.8919 32.4913 12.9834 30.2321 12.9834 24.6263C12.9834 17.6965 18.563 12.1041 25.4799 12.1041L25.4832 12.1073ZM2.29836 22.6918C1.95431 22.6918 1.62323 22.8314 1.37976 23.0748C1.13632 23.3183 1 23.6461 1 23.9902C1 24.3375 1.13632 24.6653 1.37976 24.912C1.6232 25.1555 1.95428 25.2918 2.29836 25.2918H7.06329C7.40734 25.2918 7.73842 25.1555 7.98189 24.912C8.22533 24.6653 8.36165 24.3375 8.36165 23.9902C8.36165 23.6461 8.22208 23.3183 7.97864 23.0748C7.7352 22.8314 7.40737 22.6918 7.06328 22.6918H2.29836ZM43.8967 22.6918C43.1826 22.6951 42.6049 23.2761 42.6049 23.9901C42.6049 24.7075 43.1826 25.2885 43.8967 25.2917H48.6616C49.0057 25.2917 49.3368 25.1554 49.5802 24.912C49.8237 24.6653 49.96 24.3374 49.96 23.9901C49.96 23.6461 49.8237 23.3182 49.5802 23.0748C49.3368 22.8313 49.0057 22.6917 48.6616 22.6917L43.8967 22.6918ZM21.1501 40.8916H29.8102C29.5245 41.7128 29.3168 42.6152 29.2194 43.6279H21.7378C21.6404 42.6152 21.4359 41.7129 21.147 40.8916H21.1501Z" fill="white" stroke="white" stroke-width="0.6"/>
</svg>
