<svg width="26" height="31" viewBox="0 0 26 31" fill="none" xmlns="http://www.w3.org/2000/svg">
<path fill-rule="evenodd" clip-rule="evenodd" d="M12.0838 29.8278C12.2559 30.0014 12.4607 30.1391 12.6863 30.2331C12.9119 30.3271 13.1539 30.3755 13.3983 30.3755C13.6427 30.3755 13.8847 30.3271 14.1103 30.2331C14.3359 30.1391 14.5407 30.0014 14.7128 29.8278L22.2848 22.2373C24.0435 20.4795 25.2414 18.2396 25.727 15.801C26.2126 13.3623 25.964 10.8344 25.0128 8.53702C24.0615 6.23964 22.4503 4.27598 20.3829 2.8944C18.3155 1.51282 15.8848 0.775391 13.3983 0.775391C10.9118 0.775391 8.48109 1.51282 6.4137 2.8944C4.34631 4.27598 2.7351 6.23964 1.78384 8.53702C0.832587 10.8344 0.584028 13.3623 1.06961 15.801C1.55518 18.2396 2.75308 20.4795 4.51178 22.2373L12.0838 29.8278ZM13.2034 17.4246C14.0514 17.4246 14.8803 17.1732 15.5854 16.7021C16.2904 16.231 16.8399 15.5614 17.1644 14.778C17.4889 13.9946 17.5738 13.1325 17.4084 12.3008C17.243 11.4692 16.8347 10.7052 16.2351 10.1056C15.6355 9.50605 14.8715 9.09772 14.0399 8.93229C13.2082 8.76686 12.3461 8.85176 11.5627 9.17626C10.7793 9.50076 10.1097 10.0503 9.63863 10.7553C9.16753 11.4604 8.91608 12.2893 8.91608 13.1373C8.91608 14.2743 9.36778 15.3648 10.1718 16.1689C10.9759 16.9729 12.0664 17.4246 13.2034 17.4246Z" fill="white"/>
</svg>
