<svg width="60" height="31" viewBox="0 0 60 31" fill="none" xmlns="http://www.w3.org/2000/svg">
<path d="M50.0839 12.4452C51.6473 11.2876 52.6624 9.43226 52.6624 7.34354C52.6624 3.84579 49.8166 1.00012 46.3179 1.00012C42.8192 1.00012 39.9734 3.84544 39.9734 7.34354C39.9734 9.43226 40.9907 11.2899 42.5518 12.4452C39.7241 13.3242 37.259 15.1773 35.6273 17.7237C35.0337 17.4292 34.4106 17.1754 33.7694 16.976C35.3328 15.8184 36.3478 13.9631 36.3478 11.8743C36.3478 8.37659 33.502 5.53093 30.0033 5.53093C26.5046 5.53093 23.6588 8.37625 23.6588 11.8743C23.6588 13.9631 24.6739 15.8207 26.2373 16.976C25.5938 17.1754 24.973 17.4269 24.3794 17.7237C22.748 15.1774 20.2828 13.3243 17.4548 12.4452C19.0182 11.2876 20.0333 9.43226 20.0333 7.34354C20.0333 3.84579 17.1875 1.00012 13.6888 1.00012C10.1901 1.00012 7.34432 3.84544 7.34432 7.34354C7.34432 9.43226 8.35939 11.2899 9.92278 12.4452C4.75907 14.0559 1 18.8768 1 24.5632C1 25.0638 1.40558 25.4693 1.90631 25.4693H17.8418C17.4974 26.6179 17.3116 27.8344 17.3116 29.094C17.3116 29.5946 17.7172 30.0001 18.2179 30.0001H41.7821C42.2828 30.0001 42.6884 29.5946 42.6884 29.094C42.6884 27.8344 42.5026 26.6179 42.1582 25.4693H58.0937C58.5944 25.4693 59 25.0638 59 24.5632C59 18.877 55.241 14.0563 50.0772 12.4476L50.0839 12.4452ZM41.7864 7.34354C41.7864 4.8448 43.8188 2.81273 46.318 2.81273C48.8172 2.81273 50.8496 4.8448 50.8496 7.34354C50.8496 9.84228 48.8172 11.8743 46.318 11.8743C43.8188 11.8743 41.7864 9.84228 41.7864 7.34354ZM25.4728 11.8743C25.4728 9.3756 27.5052 7.34354 30.0043 7.34354C32.5035 7.34354 34.5359 9.3756 34.5359 11.8743C34.5359 14.3731 32.5035 16.4052 30.0043 16.4052C27.5052 16.4052 25.4728 14.3731 25.4728 11.8743ZM9.15909 7.34354C9.15909 4.8448 11.1915 2.81273 13.6907 2.81273C16.1898 2.81273 18.2222 4.8448 18.2222 7.34354C18.2222 9.84228 16.1898 11.8743 13.6907 11.8743C11.1915 11.8743 9.15909 9.84228 9.15909 7.34354ZM2.85114 23.6544C3.31337 18.0815 7.99901 13.6864 13.691 13.6864C17.3932 13.6864 20.8191 15.5667 22.8173 18.6431C20.9889 19.9049 19.507 21.6334 18.544 23.6542L2.85103 23.6564L2.85114 23.6544ZM19.1648 28.1852C19.627 22.6123 24.3127 18.2172 30.0046 18.2172C35.6966 18.2172 40.3821 22.6121 40.8444 28.1852H19.1648ZM41.4645 23.6544C40.5015 21.6314 39.0174 19.9052 37.1912 18.6434C39.1896 15.567 42.611 13.6867 46.3176 13.6867C52.0092 13.6867 56.6951 18.0815 57.1574 23.6547L41.4645 23.6544Z" fill="white" stroke="white" stroke-width="0.8"/>
</svg>
