<svg width="15" height="15" viewBox="0 0 15 15" fill="none" xmlns="http://www.w3.org/2000/svg">
<path d="M9.7358 9.06261C9.50635 8.91775 9.22433 8.9208 8.99594 9.06689L7.8395 9.80889C7.58064 9.97508 7.25735 9.95556 7.01993 9.75594C6.60962 9.4108 5.94889 8.83013 5.37405 8.21108C4.79924 7.59203 4.26002 6.8805 3.93955 6.43857C3.75416 6.18292 3.73607 5.83474 3.89037 5.55596L4.57937 4.31059C4.71558 4.06468 4.71672 3.7585 4.58219 3.51137L2.88542 0.390006C2.72095 0.0881003 2.39425 -0.0604231 2.0783 0.0229675C1.77138 0.103311 1.37291 0.299311 0.955219 0.74974C-0.35269 2.15826 -1.04734 4.53397 3.87116 9.8308C8.78965 15.1277 10.9951 14.3801 12.3036 12.9711C12.7224 12.52 12.9038 12.0902 12.979 11.7592C13.0553 11.4195 12.9197 11.0701 12.6398 10.8936C11.9413 10.4535 10.4344 9.50336 9.7358 9.06261Z" fill="#383838"/>
</svg>
