<svg width="45" height="45" viewBox="0 0 45 45" fill="none" xmlns="http://www.w3.org/2000/svg">
<path d="M42.7964 2.66182C42.704 2.45181 42.5361 2.28381 42.3345 2.19981C42.2254 2.1494 31.4771 -2.36995 22.635 6.46716C20.9471 8.15561 19.3181 10.1465 17.8234 12.2466L15.7829 11.7761C12.7012 11.0621 9.5271 11.9693 7.28508 14.2038L1.71781 19.7816C0.239924 21.2601 1.1888 23.7718 3.24608 23.9314L11.089 24.5614C10.7447 25.477 10.4508 26.3759 10.2828 26.9723C10.1317 27.5015 10.1569 28.0475 10.3164 28.5515C8.89732 28.9379 7.60417 29.6436 6.87362 30.3744C5.26138 31.9789 3.82548 39.0099 3.55677 40.4044C3.43921 41.0764 4.03541 41.5888 4.60641 41.4544C6.00033 41.1772 13.0287 39.7407 14.6325 38.1363C15.3967 37.3718 16.0852 36.0614 16.4631 34.6921C17.0005 34.8602 17.5463 34.8602 18.0417 34.7173H18.0501C18.6463 34.5493 19.5196 34.2721 20.4517 33.9109L21.0815 41.7568C21.241 43.8149 23.7602 44.7557 25.2297 43.2856L30.8053 37.7079C33.0389 35.4734 33.9542 32.2897 33.2321 29.2068L32.7618 27.1655C34.8611 25.6702 36.8512 24.0406 38.539 22.3521C47.3728 13.5234 42.8467 2.77103 42.7964 2.66182ZM2.99417 21.0501L8.56144 15.4723C10.3668 13.6662 12.9195 12.9438 15.3799 13.5234L16.7318 13.8342C14.7249 16.8499 13.0287 20.0084 11.8027 22.8141L3.38883 22.1421C2.84302 22.0917 2.6079 21.4281 2.99417 21.0501ZM13.3646 36.8762C12.5836 37.6575 8.71259 38.7411 5.58887 39.4299C6.26903 36.2966 7.35226 32.4325 8.14158 31.6512C8.82175 30.9624 10.1485 30.366 11.4416 30.1308L14.8844 33.5749C14.876 33.6085 14.876 33.6421 14.8677 33.6841C14.6157 34.919 14.0028 36.2378 13.3646 36.8762ZM16.5891 32.7349L12.273 28.4171C12.021 28.1651 11.9203 27.7871 12.0126 27.4511C12.0882 27.1907 12.231 26.7035 12.4157 26.1574L18.8479 32.5921C18.4616 32.7265 17.9494 32.8861 17.5547 32.9953C17.2188 33.0961 16.8494 32.9953 16.5891 32.7349ZM31.4771 29.6268C32.0481 32.1049 31.3259 34.6501 29.529 36.4478L23.9533 42.0256C23.567 42.412 22.9121 42.1684 22.8617 41.6308L22.1899 33.2137C24.9945 31.9957 28.1518 30.2904 31.1664 28.2827L31.4771 29.6268ZM20.6868 31.8948L13.1043 24.3094C15.2455 19.076 19.3349 12.297 23.8945 7.7356C29.1007 2.52742 35.9443 1.74619 41.2765 3.71186C41.9063 5.47592 44.4086 13.9518 37.2543 21.1089C32.6947 25.6702 25.9182 29.7612 20.6868 31.8948Z" fill="white" stroke="white" stroke-width="1.12174"/>
<path d="M27.0835 9.32228C24.7117 11.694 24.7117 15.5368 27.0835 17.9168C29.4553 20.2886 33.298 20.2886 35.678 17.9168C38.0498 15.545 38.0498 11.694 35.678 9.32228C33.298 6.95052 29.4553 6.95052 27.0835 9.32228ZM34.4302 16.669C32.7443 18.3548 30.0172 18.3548 28.3314 16.669C26.6455 14.9831 26.6455 12.256 28.3314 10.5701C30.0172 8.88429 32.7443 8.88429 34.4302 10.5701C36.1078 12.256 36.1078 14.9914 34.4302 16.669Z" fill="white" stroke="white" stroke-width="1.12174"/>
</svg>
