<svg width="44" height="44" viewBox="0 0 44 44" fill="none" xmlns="http://www.w3.org/2000/svg">
<path fill-rule="evenodd" clip-rule="evenodd" d="M17.0581 19.5714L18.7172 17.8476L12.8071 11.9394L12.6108 11.6643L9.82873 5.92204L4.73802 3.4556L2.63376 5.55986L5.14067 10.689L10.8384 13.4327L11.1156 13.6289L17.0581 19.5714ZM27.7858 23.7962L22.9298 28.5652L35.4947 41.1301C35.6844 41.3197 35.9417 41.4263 36.21 41.4263C36.4782 41.4263 36.7355 41.3197 36.9252 41.1301L40.3062 37.747C40.4959 37.5573 40.6024 37.3001 40.6024 37.0318C40.6024 36.7635 40.4959 36.5063 40.3062 36.3166L27.7858 23.7962Z" stroke="#1AAE67" stroke-width="2.4"/>
<path fill-rule="evenodd" clip-rule="evenodd" d="M2.28777 35.7338C1.90374 34.3005 1.90408 32.7912 2.28876 31.358C2.67344 29.9247 3.42888 28.6182 4.47904 27.5697C5.52792 26.5195 6.83487 25.7641 8.2684 25.3795C9.70194 24.9948 11.2115 24.9944 12.6452 25.3784L25.3821 12.6415C24.9974 11.208 24.9973 9.69848 25.3816 8.26487C25.7659 6.83127 26.5212 5.52424 27.5713 4.47538C28.6204 3.42627 29.9272 2.67183 31.3604 2.28789C32.7935 1.90395 34.3024 1.90404 35.7355 2.28815L32.1157 5.90587L31.9842 11.8545L37.8802 11.6724L41.6173 7.9373C42.0685 9.38157 42.1235 10.9205 41.7767 12.3933C41.4299 13.8661 40.6939 15.2188 39.6457 16.31C38.5975 17.4012 37.2755 18.1909 35.8178 18.5966C34.3601 19.0024 32.8203 19.0092 31.359 18.6164L18.6181 31.3574C19.0108 32.8186 19.004 34.3585 18.5983 35.8162C18.1925 37.2739 17.4028 38.5959 16.3116 39.6441C15.2204 40.6923 13.8678 41.4282 12.3949 41.775C10.9221 42.1219 9.38321 42.0668 7.93894 41.6157L11.676 37.8786L11.8581 31.9826L5.90953 32.1141L2.28777 35.7338Z" stroke="#1AAE67" stroke-width="2.4" stroke-linecap="round" stroke-linejoin="round"/>
</svg>
