<svg width="23" height="23" viewBox="0 0 23 23" fill="none" xmlns="http://www.w3.org/2000/svg">
<path d="M20.0395 1.06044H3.10058C2.91017 1.05782 2.72111 1.0924 2.54418 1.16219C2.36726 1.23199 2.20594 1.33564 2.06945 1.46723C1.93295 1.59882 1.82395 1.75576 1.74866 1.9291C1.67338 2.10244 1.63328 2.28877 1.63068 2.47747V19.462C1.63328 19.6507 1.67338 19.837 1.74866 20.0103C1.82395 20.1837 1.93295 20.3406 2.06945 20.4722C2.20594 20.6038 2.36726 20.7074 2.54418 20.7772C2.72111 20.847 2.91017 20.8816 3.10058 20.879H20.0395C20.2299 20.8816 20.419 20.847 20.5959 20.7772C20.7728 20.7074 20.9341 20.6038 21.0706 20.4722C21.2071 20.3406 21.3161 20.1837 21.3914 20.0103C21.4667 19.837 21.5068 19.6507 21.5094 19.462V2.47747C21.5068 2.28877 21.4667 2.10244 21.3914 1.9291C21.3161 1.75576 21.2071 1.59882 21.0706 1.46723C20.9341 1.33564 20.7728 1.23199 20.5959 1.16219C20.419 1.0924 20.2299 1.05782 20.0395 1.06044ZM7.66029 17.6486H4.66048V8.73022H7.66029V17.6486ZM6.16038 7.48165C5.74667 7.48165 5.34991 7.31878 5.05737 7.02888C4.76483 6.73898 4.60048 6.34579 4.60048 5.9358C4.60048 5.52582 4.76483 5.13263 5.05737 4.84272C5.34991 4.55282 5.74667 4.38996 6.16038 4.38996C6.38007 4.36527 6.60253 4.38684 6.81322 4.45326C7.0239 4.51968 7.21805 4.62945 7.38296 4.77539C7.54787 4.92132 7.67981 5.10013 7.77015 5.3001C7.86049 5.50008 7.90719 5.7167 7.90719 5.9358C7.90719 6.1549 7.86049 6.37153 7.77015 6.5715C7.67981 6.77147 7.54787 6.95028 7.38296 7.09622C7.21805 7.24215 7.0239 7.35192 6.81322 7.41834C6.60253 7.48477 6.38007 7.50634 6.16038 7.48165ZM18.4796 17.6486H15.4798V12.8624C15.4798 11.6634 15.0498 10.8805 13.9599 10.8805C13.6226 10.883 13.2941 10.9878 13.0188 11.181C12.7434 11.3741 12.5345 11.6462 12.42 11.9606C12.3417 12.1935 12.3078 12.4388 12.32 12.684V17.6386H9.32018C9.32018 17.6386 9.32018 9.53287 9.32018 8.72031H12.32V9.97878C12.5925 9.51018 12.9889 9.12413 13.4664 8.86221C13.9439 8.60029 14.4844 8.47243 15.0298 8.49239C17.0297 8.49239 18.4796 9.77069 18.4796 12.5156V17.6486Z" fill="white"/>
</svg>
