<svg width="43" height="43" viewBox="0 0 43 43" fill="none" xmlns="http://www.w3.org/2000/svg">
<path fill-rule="evenodd" clip-rule="evenodd" d="M27.1166 21.0691L25.8826 22.3032C25.7041 22.4814 25.5626 22.6931 25.466 22.9261C25.3694 23.1591 25.3197 23.4088 25.3197 23.6611C25.3197 23.9133 25.3694 24.163 25.466 24.396C25.5626 24.629 25.7041 24.8407 25.8826 25.0189L26.6234 25.7578C26.9833 26.1176 27.4714 26.3198 27.9803 26.3198C28.4892 26.3198 28.9773 26.1176 29.3372 25.7578L30.5713 24.5218L34.0259 27.9765C36.0934 25.9086 37.4301 23.2229 37.8332 20.3266C38.2364 17.4304 37.684 14.4817 36.2599 11.9278L40.44 7.74579C40.7998 7.38588 41.0019 6.8978 41.0019 6.38889C41.0019 5.87997 40.7998 5.3919 40.44 5.03199L37.9719 2.56193C37.6119 2.20213 37.1239 2 36.6149 2C36.106 2 35.618 2.20213 35.2581 2.56193L31.078 6.74395C28.5236 5.31889 25.5741 4.766 22.6771 5.16917C19.7801 5.57235 17.0936 6.90958 15.0255 8.97794L18.4801 12.4326L17.2441 13.6666C16.8843 14.0265 16.6822 14.5146 16.6822 15.0235C16.6822 15.5324 16.8843 16.0205 17.2441 16.3804L17.9849 17.1193C18.3448 17.4791 18.8329 17.6813 19.3418 17.6813C19.8507 17.6813 20.3388 17.4791 20.6987 17.1193L21.9328 15.8853L27.1186 21.0672L27.1166 21.0691ZM6.74586 31.076L2.56193 35.2561C2.20213 35.616 2 36.1041 2 36.613C2 37.1219 2.20213 37.61 2.56193 37.9699L5.03007 40.4381C5.38998 40.7979 5.87805 41 6.38697 41C6.89588 41 7.38396 40.7979 7.74387 40.4381L11.924 36.258C14.4783 37.683 17.4278 38.2359 20.3248 37.8327C23.2219 37.4296 25.9083 36.0923 27.9765 34.024L8.97602 15.0235C6.90784 17.0923 5.57105 19.7793 5.16856 22.6767C4.76608 25.5742 5.31986 28.5219 6.74586 31.076Z" stroke="#1AAE67" stroke-width="2.8"/>
</svg>
