<svg width="42" height="43" viewBox="0 0 42 43" fill="none" xmlns="http://www.w3.org/2000/svg">
<path d="M36.8223 16.6836L36.8228 16.6836C36.8517 16.6835 36.8806 16.6922 36.9057 16.7094C36.9309 16.7266 36.9514 16.7518 36.9634 16.7825C36.9754 16.8133 36.9779 16.8474 36.9704 16.8799C36.963 16.9124 36.9461 16.9409 36.9233 16.9621L36.9227 16.9626L27.4747 25.7193L26.8189 26.3272L27.0417 27.1932L30.1556 39.2976L30.156 39.2992C30.1645 39.332 30.1627 39.3666 30.1511 39.3981C30.1395 39.4296 30.1191 39.4555 30.0937 39.4733C30.0684 39.491 30.039 39.5 30.0096 39.5C29.9802 39.5 29.9509 39.491 29.9256 39.4733L29.9244 39.4724L20.0963 32.6069L19.2373 32.0068L18.3783 32.6069L8.55007 39.4724L8.54889 39.4733C8.52359 39.491 8.49428 39.5 8.46488 39.5C8.43547 39.5 8.40616 39.491 8.38086 39.4733C8.35544 39.4555 8.33498 39.4296 8.32341 39.3981C8.3118 39.3666 8.31003 39.332 8.3185 39.2992L8.31892 39.2976L11.4328 27.1932L11.6556 26.3271L10.9997 25.7192L1.55122 16.9635C1.5511 16.9634 1.55098 16.9633 1.55087 16.9632C1.52821 16.942 1.51155 16.9137 1.50417 16.8813C1.49674 16.8488 1.49931 16.8147 1.51132 16.784C1.5233 16.7533 1.54377 16.7281 1.56893 16.7109L0.722207 15.4727L1.56893 16.7109C1.59401 16.6938 1.6229 16.6851 1.65186 16.6851L1.65242 16.6851L14.0666 16.7006L15.1867 16.702L15.5062 15.6283L19.0803 3.61354L19.0808 3.61197C19.0909 3.57785 19.1113 3.54921 19.1377 3.52952C19.1639 3.50991 19.1948 3.49994 19.2259 3.5C19.2569 3.50006 19.2878 3.51016 19.3139 3.52987C19.3402 3.54968 19.3606 3.57842 19.3705 3.61259L19.3709 3.61365L22.8881 15.6222L23.2044 16.7021L24.3296 16.7006L36.8223 16.6836Z" stroke="#1AAE67" stroke-width="3"/>
</svg>
