<svg width="49" height="50" viewBox="0 0 49 50" fill="none" xmlns="http://www.w3.org/2000/svg">
<path d="M3.59615 23.857H3.61758C3.97542 23.8591 4.29258 24.0863 4.40613 24.4249C4.57755 24.9006 4.76183 25.3548 4.98468 25.8412H4.98683C5.04254 25.9526 5.07039 26.0748 5.07039 26.1991C5.06825 26.4198 4.97611 26.6298 4.81754 26.7798C3.61972 28.0076 3.62186 29.9661 4.82397 31.1896L6.89388 33.2574H6.89174C8.11529 34.4016 10.0116 34.4145 11.2523 33.2895C11.518 33.026 11.9187 32.951 12.2637 33.101C12.7437 33.3217 13.2258 33.5145 13.7358 33.6967C14.0487 33.8445 14.2372 34.1702 14.2137 34.5152C14.2394 36.2187 15.6322 37.5815 17.3335 37.5708H20.0999C20.987 37.5687 21.8399 37.2151 22.4677 36.5894C23.0377 36.0259 23.3591 35.2566 23.3569 34.4552C23.3591 34.3395 23.3848 34.2238 23.4362 34.1188C23.8305 39.4543 26.8711 44.2346 31.5362 46.8556L35.0932 48.7863C35.6139 49.0712 36.2417 49.0712 36.7603 48.7863L40.3195 46.8556C42.8437 45.4285 44.9372 43.3458 46.3771 40.8259C47.8171 38.3082 48.5499 35.4454 48.4985 32.5461V27.3948C48.4942 26.5205 47.8492 25.7835 46.9836 25.6635C45.2886 25.4342 43.6173 25.0549 41.9887 24.5342C40.1781 23.9535 38.4253 23.2036 36.756 22.295C36.726 22.28 36.696 22.2736 36.666 22.2608V22.2586C36.9296 21.7958 37.0689 21.2708 37.071 20.7373V17.9709C37.0689 17.0817 36.7153 16.231 36.0896 15.601C35.5303 15.0353 34.7697 14.716 33.9746 14.7139H33.9511C33.5954 14.7117 33.2782 14.4825 33.1625 14.146C32.9911 13.6703 32.8068 13.2161 32.584 12.7296V12.7275C32.5283 12.6182 32.4983 12.4961 32.4983 12.3718C32.5004 12.1511 32.5925 11.9411 32.7533 11.7911C33.9511 10.5633 33.9468 8.60478 32.7468 7.38123L30.6769 5.31132C29.4534 4.16924 27.5592 4.15421 26.3185 5.27918C26.0506 5.54489 25.6499 5.61988 25.3071 5.46989C24.8271 5.24919 24.345 5.05633 23.835 4.87422C23.5221 4.72422 23.3314 4.40066 23.3571 4.05353C23.3314 2.35214 21.9386 0.989366 20.2351 1.00006H17.4709C16.5816 1.00221 15.7309 1.35362 15.1031 1.98148C14.531 2.54501 14.2117 3.3143 14.2139 4.11568C14.2139 4.47352 13.9846 4.79281 13.6439 4.90636C13.1682 5.07779 12.716 5.26207 12.2296 5.48492H12.2275C11.9125 5.64349 11.5311 5.57492 11.2911 5.31778C10.0633 4.11996 8.10478 4.1221 6.88123 5.32421L4.81132 7.39198C3.63067 8.6005 3.61778 10.5247 4.77918 11.7504C5.04489 12.0182 5.11988 12.419 4.96989 12.764C4.74919 13.2439 4.55419 13.7261 4.37422 14.2361C4.22422 14.5489 3.90066 14.7375 3.55567 14.7139C1.85214 14.7396 0.489366 16.1324 0.500063 17.8338V20.6001C0.502205 21.4873 0.853621 22.3401 1.48148 22.9679C2.04073 23.5336 2.80114 23.8527 3.59615 23.857ZM18.7845 26.7133C15.7803 26.7133 13.0719 24.9026 11.9232 22.1277C10.7725 19.3528 11.4089 16.1556 13.5324 14.0322C15.6559 11.9087 18.8529 11.2723 21.628 12.423C24.4029 13.5715 26.2135 16.2799 26.2135 19.2843C26.2093 23.3856 22.8858 26.7089 18.7845 26.7133ZM41.2922 26.7112C42.8993 27.2254 44.5449 27.609 46.212 27.8619V32.546C46.2635 35.0338 45.642 37.4915 44.4121 39.6558C43.1843 41.8222 41.3929 43.6157 39.2287 44.8477L35.9267 46.6391L32.6247 44.8477C30.4626 43.6156 28.6713 41.8222 27.4413 39.6558C26.2135 37.4916 25.5921 35.0338 25.6414 32.546V27.8619C27.3085 27.609 28.9542 27.2254 30.5613 26.7112C31.0584 26.5526 31.5512 26.379 32.0419 26.1948L32.0741 26.1819L32.0719 26.184C33.394 25.6891 34.6818 25.1084 35.9268 24.4441C37.6453 25.3591 39.4408 26.1198 41.2922 26.7112ZM2.78649 17.8334C2.7822 17.3791 3.14648 17.0063 3.60076 16.9999C4.90143 17.0127 6.07139 16.2135 6.52992 14.9985C6.68635 14.555 6.85348 14.1371 7.04634 13.7193V13.7172C7.58846 12.5257 7.34847 11.1265 6.44205 10.1816C6.12492 9.85157 6.12278 9.32873 6.43991 8.99658L8.49056 6.94378C8.82055 6.62236 9.34768 6.62022 9.67983 6.9395C10.2584 7.52447 11.0491 7.85448 11.8719 7.85662C12.3369 7.85662 12.7976 7.75162 13.2154 7.54592C13.6097 7.36593 14.0018 7.20522 14.4197 7.05736C15.6689 6.60952 16.5003 5.42668 16.5003 4.10033C16.5025 3.90749 16.5839 3.72535 16.7232 3.5925C16.9224 3.3975 17.1903 3.28608 17.471 3.28608H20.2374H20.2352C20.6916 3.28179 21.0645 3.64607 21.0709 4.10035C21.058 5.40102 21.8573 6.57098 23.0722 7.02951C23.5158 7.18594 23.9336 7.35522 24.3514 7.54593H24.3536C25.5429 8.08805 26.9442 7.8502 27.887 6.94164C28.2235 6.63736 28.7356 6.63736 29.0742 6.9395L31.1248 8.99015C31.4484 9.32014 31.4505 9.84727 31.1312 10.1794C30.5441 10.758 30.2141 11.5465 30.2141 12.3715C30.212 12.8365 30.3191 13.2972 30.5227 13.715C30.7027 14.1093 30.8634 14.5014 31.0134 14.9192V14.9214C31.4591 16.1621 32.6333 16.9913 33.9512 16.9999H33.9747C34.1654 17.0042 34.3454 17.0835 34.4783 17.2228C34.6733 17.422 34.7826 17.6899 34.7847 17.9706V20.737C34.7868 21.0391 34.624 21.3198 34.3583 21.4676C34.0154 21.6326 33.6083 21.5919 33.304 21.3626C33.0126 21.1805 32.6548 21.1398 32.3312 21.2512C32.0055 21.3605 31.7484 21.6112 31.6284 21.9348C31.4827 22.3269 31.3563 22.6826 31.2406 23.0169C31.0863 23.454 30.9427 23.8419 30.7927 24.2147C30.4842 24.324 30.1777 24.4354 29.867 24.534H29.8649C28.7035 24.8961 27.5207 25.1854 26.3229 25.4018C28.3629 22.884 29.0121 19.5158 28.0564 16.4192C27.0986 13.3251 24.6623 10.9101 21.5572 9.98252C18.4523 9.0547 15.0903 9.7361 12.5916 11.7996C10.0931 13.8631 8.79032 17.0366 9.11391 20.2616C9.43961 23.4843 11.3488 26.3341 14.2095 27.8579C17.0679 29.3814 20.4986 29.3793 23.3571 27.8515V31.4299C23.2864 31.4557 23.2243 31.4878 23.1514 31.5135H23.1493C21.9022 31.9614 21.0708 33.1442 21.0708 34.4705C21.0665 34.6612 20.9872 34.8455 20.8479 34.9784C20.6486 35.1734 20.3786 35.2827 20.1001 35.2848H17.3337C16.8795 35.2891 16.5066 34.9248 16.5002 34.4705C16.5131 33.1698 15.7138 31.9999 14.4967 31.5414C14.0532 31.3849 13.6353 31.2157 13.2175 31.0249C12.0261 30.4828 10.6268 30.7207 9.68404 31.6271C9.34763 31.9314 8.83549 31.9335 8.49692 31.6314L6.44626 29.5807C6.1227 29.2507 6.11841 28.7236 6.43983 28.3915C7.02481 27.8129 7.35696 27.0222 7.35696 26.1994C7.35696 25.7323 7.25196 25.2737 7.0484 24.8537C6.86841 24.4595 6.7077 24.0673 6.5577 23.6495C6.10986 22.4088 4.93777 21.5796 3.61779 21.571H3.60065C3.4078 21.5688 3.22352 21.4895 3.09281 21.3481C2.89781 21.1488 2.78639 20.8789 2.78639 20.6003L2.78649 17.8334Z" fill="white"/>
<path d="M29.4998 35.0552C29.4998 37.2837 30.5798 39.3729 32.399 40.6587C34.2161 41.9444 36.5475 42.2679 38.6476 41.5243C40.7454 40.7808 42.3546 39.0644 42.9589 36.9195C43.561 34.7745 43.0875 32.4711 41.6839 30.7417C41.6668 30.7203 41.6411 30.7117 41.6239 30.6924C41.6047 30.6731 41.5982 30.6453 41.5768 30.626C41.5361 30.5981 41.4932 30.5724 41.4482 30.5489C41.3882 30.5017 41.3218 30.4631 41.2532 30.4289C41.0561 30.3367 40.8333 30.311 40.619 30.3539C40.5483 30.3624 40.4776 30.3796 40.4112 30.4031C40.2997 30.461 40.1883 30.5189 40.0769 30.5788C40.0555 30.596 40.0469 30.6217 40.0276 30.6388C40.0062 30.6581 39.9805 30.6667 39.9612 30.686L35.8342 35.1323L34.6214 34.1638C34.3857 33.9731 34.0836 33.8852 33.7815 33.9195C33.4815 33.9516 33.205 34.1038 33.0144 34.3416C32.8258 34.5773 32.7379 34.8795 32.7722 35.1816C32.8044 35.4837 32.9565 35.758 33.1943 35.9487L35.2364 37.5815H35.2343C35.7036 37.9543 36.3807 37.905 36.7878 37.4658L40.5955 33.3645V33.3623C41.337 35.2265 40.7734 37.3564 39.2092 38.6121C37.6449 39.8657 35.4464 39.9535 33.7858 38.8264C32.1273 37.6993 31.3987 35.623 31.9902 33.7052C32.5794 31.7895 34.3515 30.4824 36.3571 30.4846C36.9892 30.4846 37.5014 29.9724 37.5014 29.3425C37.5014 28.7104 36.9892 28.1982 36.3571 28.1982C32.573 28.2025 29.5042 31.2711 29.4998 35.0552Z" fill="white"/>
<path d="M3.59615 23.857H3.61758C3.97542 23.8591 4.29258 24.0863 4.40613 24.4249C4.57755 24.9006 4.76183 25.3548 4.98468 25.8412H4.98683C5.04254 25.9526 5.07039 26.0748 5.07039 26.1991C5.06825 26.4198 4.97611 26.6298 4.81754 26.7798C3.61972 28.0076 3.62186 29.9661 4.82397 31.1896L6.89388 33.2574H6.89174C8.11529 34.4016 10.0116 34.4145 11.2523 33.2895C11.518 33.026 11.9187 32.951 12.2637 33.101C12.7437 33.3217 13.2258 33.5145 13.7358 33.6967C14.0487 33.8445 14.2372 34.1702 14.2137 34.5152C14.2394 36.2187 15.6322 37.5815 17.3335 37.5708H20.0999C20.987 37.5687 21.8399 37.2151 22.4677 36.5894C23.0377 36.0259 23.3591 35.2566 23.3569 34.4552C23.3591 34.3395 23.3848 34.2238 23.4362 34.1188C23.8305 39.4543 26.8711 44.2346 31.5362 46.8556L35.0932 48.7863C35.6139 49.0712 36.2417 49.0712 36.7603 48.7863L40.3195 46.8556C42.8437 45.4285 44.9372 43.3458 46.3771 40.8259C47.8171 38.3082 48.5499 35.4454 48.4985 32.5461V27.3948C48.4942 26.5205 47.8492 25.7835 46.9836 25.6635C45.2886 25.4342 43.6173 25.0549 41.9887 24.5342C40.1781 23.9535 38.4253 23.2036 36.756 22.295C36.726 22.28 36.696 22.2736 36.666 22.2608V22.2586C36.9296 21.7958 37.0689 21.2708 37.071 20.7373V17.9709C37.0689 17.0817 36.7153 16.231 36.0896 15.601C35.5303 15.0353 34.7697 14.716 33.9746 14.7139H33.9511C33.5954 14.7117 33.2782 14.4825 33.1625 14.146C32.9911 13.6703 32.8068 13.2161 32.584 12.7296V12.7275C32.5283 12.6182 32.4983 12.4961 32.4983 12.3718C32.5004 12.1511 32.5925 11.9411 32.7533 11.7911C33.9511 10.5633 33.9468 8.60478 32.7468 7.38123L30.6769 5.31132C29.4534 4.16924 27.5592 4.15421 26.3185 5.27918C26.0506 5.54489 25.6499 5.61988 25.3071 5.46989C24.8271 5.24919 24.345 5.05633 23.835 4.87422C23.5221 4.72422 23.3314 4.40066 23.3571 4.05353C23.3314 2.35214 21.9386 0.989366 20.2351 1.00006H17.4709C16.5816 1.00221 15.7309 1.35362 15.1031 1.98148C14.531 2.54501 14.2117 3.3143 14.2139 4.11568C14.2139 4.47352 13.9846 4.79281 13.6439 4.90636C13.1682 5.07779 12.716 5.26207 12.2296 5.48492H12.2275C11.9125 5.64349 11.5311 5.57492 11.2911 5.31778C10.0633 4.11996 8.10478 4.1221 6.88123 5.32421L4.81132 7.39198C3.63067 8.6005 3.61778 10.5247 4.77918 11.7504C5.04489 12.0182 5.11988 12.419 4.96989 12.764C4.74919 13.2439 4.55419 13.7261 4.37422 14.2361C4.22422 14.5489 3.90066 14.7375 3.55567 14.7139C1.85214 14.7396 0.489366 16.1324 0.500063 17.8338V20.6001C0.502205 21.4873 0.853621 22.3401 1.48148 22.9679C2.04073 23.5336 2.80114 23.8527 3.59615 23.857ZM18.7845 26.7133C15.7803 26.7133 13.0719 24.9026 11.9232 22.1277C10.7725 19.3528 11.4089 16.1556 13.5324 14.0322C15.6559 11.9087 18.8529 11.2723 21.628 12.423C24.4029 13.5715 26.2135 16.2799 26.2135 19.2843C26.2093 23.3856 22.8858 26.7089 18.7845 26.7133ZM41.2922 26.7112C42.8993 27.2254 44.5449 27.609 46.212 27.8619V32.546C46.2635 35.0338 45.642 37.4915 44.4121 39.6558C43.1843 41.8222 41.3929 43.6157 39.2287 44.8477L35.9267 46.6391L32.6247 44.8477C30.4626 43.6156 28.6713 41.8222 27.4413 39.6558C26.2135 37.4916 25.5921 35.0338 25.6414 32.546V27.8619C27.3085 27.609 28.9542 27.2254 30.5613 26.7112C31.0584 26.5526 31.5512 26.379 32.0419 26.1948L32.0741 26.1819L32.0719 26.184C33.394 25.6891 34.6818 25.1084 35.9268 24.4441C37.6453 25.3591 39.4408 26.1198 41.2922 26.7112ZM2.78649 17.8334C2.7822 17.3791 3.14648 17.0063 3.60076 16.9999C4.90143 17.0127 6.07139 16.2135 6.52992 14.9985C6.68635 14.555 6.85348 14.1371 7.04634 13.7193V13.7172C7.58846 12.5257 7.34847 11.1265 6.44205 10.1816C6.12492 9.85157 6.12278 9.32873 6.43991 8.99658L8.49056 6.94378C8.82055 6.62236 9.34768 6.62022 9.67983 6.9395C10.2584 7.52447 11.0491 7.85448 11.8719 7.85662C12.3369 7.85662 12.7976 7.75162 13.2154 7.54592C13.6097 7.36593 14.0018 7.20522 14.4197 7.05736C15.6689 6.60952 16.5003 5.42668 16.5003 4.10033C16.5025 3.90749 16.5839 3.72535 16.7232 3.5925C16.9224 3.3975 17.1903 3.28608 17.471 3.28608H20.2374H20.2352C20.6916 3.28179 21.0645 3.64607 21.0709 4.10035C21.058 5.40102 21.8573 6.57098 23.0722 7.02951C23.5158 7.18594 23.9336 7.35522 24.3514 7.54593H24.3536C25.5429 8.08805 26.9442 7.8502 27.887 6.94164C28.2235 6.63736 28.7356 6.63736 29.0742 6.9395L31.1248 8.99015C31.4484 9.32014 31.4505 9.84727 31.1312 10.1794C30.5441 10.758 30.2141 11.5465 30.2141 12.3715C30.212 12.8365 30.3191 13.2972 30.5227 13.715C30.7027 14.1093 30.8634 14.5014 31.0134 14.9192V14.9214C31.4591 16.1621 32.6333 16.9913 33.9512 16.9999H33.9747C34.1654 17.0042 34.3454 17.0835 34.4783 17.2228C34.6733 17.422 34.7826 17.6899 34.7847 17.9706V20.737C34.7868 21.0391 34.624 21.3198 34.3583 21.4676C34.0154 21.6326 33.6083 21.5919 33.304 21.3626C33.0126 21.1805 32.6548 21.1398 32.3312 21.2512C32.0055 21.3605 31.7484 21.6112 31.6284 21.9348C31.4827 22.3269 31.3563 22.6826 31.2406 23.0169C31.0863 23.454 30.9427 23.8419 30.7927 24.2147C30.4842 24.324 30.1777 24.4354 29.867 24.534H29.8649C28.7035 24.8961 27.5207 25.1854 26.3229 25.4018C28.3629 22.884 29.0121 19.5158 28.0564 16.4192C27.0986 13.3251 24.6623 10.9101 21.5572 9.98252C18.4523 9.0547 15.0903 9.7361 12.5916 11.7996C10.0931 13.8631 8.79032 17.0366 9.11391 20.2616C9.43961 23.4843 11.3488 26.3341 14.2095 27.8579C17.0679 29.3814 20.4986 29.3793 23.3571 27.8515V31.4299C23.2864 31.4557 23.2243 31.4878 23.1514 31.5135H23.1493C21.9022 31.9614 21.0708 33.1442 21.0708 34.4705C21.0665 34.6612 20.9872 34.8455 20.8479 34.9784C20.6486 35.1734 20.3786 35.2827 20.1001 35.2848H17.3337C16.8795 35.2891 16.5066 34.9248 16.5002 34.4705C16.5131 33.1698 15.7138 31.9999 14.4967 31.5414C14.0532 31.3849 13.6353 31.2157 13.2175 31.0249C12.0261 30.4828 10.6268 30.7207 9.68404 31.6271C9.34763 31.9314 8.83549 31.9335 8.49692 31.6314L6.44626 29.5807C6.1227 29.2507 6.11841 28.7236 6.43983 28.3915C7.02481 27.8129 7.35696 27.0222 7.35696 26.1994C7.35696 25.7323 7.25196 25.2737 7.0484 24.8537C6.86841 24.4595 6.7077 24.0673 6.5577 23.6495C6.10986 22.4088 4.93777 21.5796 3.61779 21.571H3.60065C3.4078 21.5688 3.22352 21.4895 3.09281 21.3481C2.89781 21.1488 2.78639 20.8789 2.78639 20.6003L2.78649 17.8334Z" stroke="white" stroke-width="0.3"/>
<path d="M29.4998 35.0552C29.4998 37.2837 30.5798 39.3729 32.399 40.6587C34.2161 41.9444 36.5475 42.2679 38.6476 41.5243C40.7454 40.7808 42.3546 39.0644 42.9589 36.9195C43.561 34.7745 43.0875 32.4711 41.6839 30.7417C41.6668 30.7203 41.6411 30.7117 41.6239 30.6924C41.6047 30.6731 41.5982 30.6453 41.5768 30.626C41.5361 30.5981 41.4932 30.5724 41.4482 30.5489C41.3882 30.5017 41.3218 30.4631 41.2532 30.4289C41.0561 30.3367 40.8333 30.311 40.619 30.3539C40.5483 30.3624 40.4776 30.3796 40.4112 30.4031C40.2997 30.461 40.1883 30.5189 40.0769 30.5788C40.0555 30.596 40.0469 30.6217 40.0276 30.6388C40.0062 30.6581 39.9805 30.6667 39.9612 30.686L35.8342 35.1323L34.6214 34.1638C34.3857 33.9731 34.0836 33.8852 33.7815 33.9195C33.4815 33.9516 33.205 34.1038 33.0144 34.3416C32.8258 34.5773 32.7379 34.8795 32.7722 35.1816C32.8044 35.4837 32.9565 35.758 33.1943 35.9487L35.2364 37.5815H35.2343C35.7036 37.9543 36.3807 37.905 36.7878 37.4658L40.5955 33.3645V33.3623C41.337 35.2265 40.7734 37.3564 39.2092 38.6121C37.6449 39.8657 35.4464 39.9535 33.7858 38.8264C32.1273 37.6993 31.3987 35.623 31.9902 33.7052C32.5794 31.7895 34.3515 30.4824 36.3571 30.4846C36.9892 30.4846 37.5014 29.9724 37.5014 29.3425C37.5014 28.7104 36.9892 28.1982 36.3571 28.1982C32.573 28.2025 29.5042 31.2711 29.4998 35.0552Z" stroke="white" stroke-width="0.3"/>
</svg>
