<svg width="29" height="29" viewBox="0 0 29 29" fill="none" xmlns="http://www.w3.org/2000/svg">
<path d="M14.75 0.235809C11.9811 0.235809 9.27431 1.05689 6.97202 2.59523C4.66973 4.13357 2.87532 6.32007 1.81569 8.87824C0.756066 11.4364 0.478819 14.2513 1.01901 16.9671C1.55921 19.6828 2.89258 22.1774 4.85051 24.1353C6.80845 26.0932 9.30301 27.4266 12.0187 27.9668C14.7345 28.507 17.5494 28.2297 20.1076 27.1701C22.6657 26.1105 24.8522 24.3161 26.3906 22.0138C27.9289 19.7115 28.75 17.0047 28.75 14.2358C28.7461 10.524 27.2698 6.9653 24.6452 4.34064C22.0205 1.71598 18.4618 0.239729 14.75 0.235809ZM19.8196 17.7816C19.9197 17.8816 19.999 18.0004 20.0532 18.1311C20.1073 18.2619 20.1352 18.402 20.1352 18.5435C20.1352 18.685 20.1073 18.8251 20.0532 18.9558C19.999 19.0866 19.9197 19.2054 19.8196 19.3054C19.7196 19.4055 19.6008 19.4848 19.47 19.539C19.3393 19.5931 19.1992 19.621 19.0577 19.621C18.9162 19.621 18.7761 19.5931 18.6453 19.539C18.5146 19.4848 18.3958 19.4055 18.2958 19.3054L14.75 15.7583L11.2042 19.3054C11.1042 19.4055 10.9854 19.4848 10.8547 19.539C10.7239 19.5931 10.5838 19.621 10.4423 19.621C10.3008 19.621 10.1607 19.5931 10.03 19.539C9.89923 19.4848 9.78045 19.4055 9.68039 19.3054C9.58033 19.2054 9.50096 19.0866 9.44681 18.9558C9.39266 18.8251 9.36479 18.685 9.36479 18.5435C9.36479 18.402 9.39266 18.2619 9.44681 18.1311C9.50096 18.0004 9.58033 17.8816 9.68039 17.7816L13.2275 14.2358L9.68039 10.69C9.47831 10.488 9.36479 10.2139 9.36479 9.92812C9.36479 9.64234 9.47831 9.36827 9.68039 9.16619C9.88246 8.96412 10.1565 8.85059 10.4423 8.85059C10.7281 8.85059 11.0022 8.96412 11.2042 9.16619L14.75 12.7133L18.2958 9.16619C18.3958 9.06613 18.5146 8.98676 18.6453 8.93261C18.7761 8.87846 18.9162 8.85059 19.0577 8.85059C19.1992 8.85059 19.3393 8.87846 19.47 8.93261C19.6008 8.98676 19.7196 9.06613 19.8196 9.16619C19.9197 9.26625 19.999 9.38503 20.0532 9.51577C20.1073 9.6465 20.1352 9.78661 20.1352 9.92812C20.1352 10.0696 20.1073 10.2097 20.0532 10.3405C19.999 10.4712 19.9197 10.59 19.8196 10.69L16.2725 14.2358L19.8196 17.7816Z" fill="#BDC1BE"/>
</svg>
